<?xml version="1.0" encoding="utf-8"?>
<!-- Generator: Adobe Illustrator 15.0.0, SVG Export Plug-In  -->
<!DOCTYPE svg PUBLIC "-//W3C//DTD SVG 1.1//EN" "http://www.w3.org/Graphics/SVG/1.1/DTD/svg11.dtd" [
	<!ENTITY ns_flows "http://ns.adobe.com/Flows/1.0/">
]>
<svg version="1.1"
	 xmlns="http://www.w3.org/2000/svg" xmlns:xlink="http://www.w3.org/1999/xlink" xmlns:a="http://ns.adobe.com/AdobeSVGViewerExtensions/3.0/"
	 x="0px" y="0px" width="1191px" height="842px" viewBox="-3.5 -50.65 1191 842" enable-background="new -3.5 -50.65 1191 842"
	 xml:space="preserve">
<defs>
</defs>
<g>
	<g>
		
			<line fill="none" stroke="#000000" stroke-width="2" stroke-linejoin="round" x1="652.869" y1="59.877" x2="630.056" y2="15.362"/>
		<g>
			<polygon points="637.165,14.015 625.439,6.439 624.741,20.381 			"/>
		</g>
	</g>
</g>
<g>
	<g>
		<line fill="none" stroke="#000000" stroke-width="2" stroke-linejoin="round" x1="635.521" y1="59.83" x2="652.869" y2="59.877"/>
		<g>
			<polygon points="637.544,66.776 625.474,59.764 637.582,52.816 			"/>
		</g>
	</g>
</g>
<g>
	<g>
		
			<line fill="none" stroke="#000000" stroke-width="2" stroke-linejoin="round" x1="652.869" y1="59.877" x2="629.682" y2="106.064"/>
		<g>
			<polygon points="624.395,101.125 625.208,115.061 636.871,107.389 			"/>
		</g>
	</g>
</g>
<text transform="matrix(1 0 0 1 608.8594 131.9009)"><tspan x="0" y="0" font-family="'MyriadPro-Regular'" font-size="10.8376">.</tspan><tspan x="0" y="13.005" font-family="'MyriadPro-Regular'" font-size="10.8376">.</tspan><tspan x="0" y="26.01" font-family="'MyriadPro-Regular'" font-size="10.8376">.</tspan></text>
<text transform="matrix(1 0 0 1 739.5098 132.0518)"><tspan x="0" y="0" font-family="'MyriadPro-Regular'" font-size="10.8376">.</tspan><tspan x="0" y="13.005" font-family="'MyriadPro-Regular'" font-size="10.8376">.</tspan><tspan x="0" y="26.01" font-family="'MyriadPro-Regular'" font-size="10.8376">.</tspan></text>
<g>
	<g>
		<line fill="none" stroke="#000000" stroke-width="2" stroke-miterlimit="10" x1="697.613" y1="59.651" x2="714.32" y2="59.651"/>
		<g>
			<polygon points="712.277,66.592 724.367,59.613 712.277,52.632 			"/>
		</g>
	</g>
</g>
<g>
	<g>
		
			<line fill="none" stroke="#000000" stroke-width="2" stroke-linejoin="round" x1="697.613" y1="59.651" x2="719.927" y2="15.773"/>
		<g>
			<polygon points="725.188,20.74 724.446,6.8 712.744,14.412 			"/>
		</g>
	</g>
</g>
<g>
	<g>
		
			<line fill="none" stroke="#000000" stroke-width="2" stroke-linejoin="round" x1="697.613" y1="59.651" x2="719.633" y2="105.534"/>
		<g>
			<polygon points="712.491,106.696 724.014,114.575 725.077,100.656 			"/>
		</g>
	</g>
</g>
<line fill="none" stroke="#000000" stroke-width="2" stroke-miterlimit="10" x1="589.461" y1="6.817" x2="90.812" y2="6.817"/>
<g>
	<g>
		<line fill="none" stroke="#000000" stroke-width="2" stroke-miterlimit="10" x1="500.718" y1="6.817" x2="500.718" y2="49.604"/>
		<g>
			<polygon points="493.777,47.562 500.756,59.651 507.737,47.562 			"/>
		</g>
	</g>
</g>
<g>
	<g>
		<line fill="none" stroke="#000000" stroke-width="2" stroke-miterlimit="10" x1="551.492" y1="72.78" x2="551.492" y2="104.146"/>
		<g>
			<polygon points="544.551,102.103 551.53,114.192 558.511,102.103 			"/>
		</g>
	</g>
</g>
<path fill="none" stroke="#000000" stroke-width="2" stroke-miterlimit="10" d="M534.561,87.692c0,8.856-5.137,16.036-11.474,16.036
	h-46.214c-6.336,0-11.474-7.179-11.474-16.036V75.667c0-8.856,5.138-16.035,11.474-16.035h46.214
	c6.337,0,11.474,7.179,11.474,16.035V87.692z"/>
<path fill="none" stroke="#000000" stroke-width="2" stroke-miterlimit="10" d="M590.459,142.397
	c0,8.856-4.853,16.035-10.838,16.035h-43.652c-5.985,0-10.838-7.179-10.838-16.035v-12.026c0-8.855,4.853-16.035,10.838-16.035
	h43.652c5.985,0,10.838,7.179,10.838,16.035V142.397z"/>
<path fill="none" stroke="#000000" stroke-width="2" stroke-miterlimit="10" d="M479.004,142.397
	c0,8.856-4.853,16.035-10.838,16.035h-43.652c-5.985,0-10.838-7.179-10.838-16.035v-12.026c0-8.855,4.853-16.035,10.838-16.035
	h43.652c5.985,0,10.838,7.179,10.838,16.035V142.397z"/>
<rect x="462.093" y="64.431" fill="none" width="77.669" height="36.728"/>
<text transform="matrix(1 0 0 1 484.5088 75.3203)"><tspan x="0" y="0" fill="#E2007A" font-family="'MyriadPro-It'" font-size="15.3378">fikční </tspan><tspan x="-15.774" y="18.405" fill="#E2007A" font-family="'MyriadPro-It'" font-size="15.3378">topografie</tspan></text>
<rect x="408.712" y="120.422" fill="none" width="77.669" height="36.729"/>
<text transform="matrix(1 0 0 1 429.564 131.312)"><tspan x="0" y="0" fill="#E2007A" font-family="'MyriadPro-It'" font-size="15.3378">síťové</tspan><tspan x="-4.854" y="18.405" fill="#E2007A" font-family="'MyriadPro-It'" font-size="15.3378">modely</tspan></text>
<rect x="330.746" y="128.006" fill="none" width="77.669" height="36.729"/>
<text transform="matrix(1 0 0 1 337.4707 138.8955)" fill="#E2007A" font-family="'MyriadPro-It'" font-size="15.3378">toponyma</text>
<path fill="none" stroke="#000000" stroke-width="2" stroke-miterlimit="10" d="M405.851,142.142c0,8.856-5.422,16.036-12.11,16.036
	h-48.776c-6.688,0-12.11-7.179-12.11-16.036v-12.026c0-8.856,5.421-16.035,12.11-16.035h48.776c6.688,0,12.11,7.179,12.11,16.035
	V142.142z"/>
<rect x="1021.97" y="257.184" fill="none" width="85.851" height="36.728"/>
<text transform="matrix(1 0 0 1 1024.5186 268.0737)" fill="#E2007A" font-family="'MyriadPro-It'" font-size="15.3378">konkordance</text>
<path fill="none" stroke="#000000" stroke-width="2" stroke-miterlimit="10" d="M1109.004,270.98
	c0,8.855-6.536,16.035-14.597,16.035h-58.797c-8.063,0-14.599-7.179-14.599-16.035v-12.026c0-8.855,6.536-16.035,14.599-16.035
	h58.797c8.061,0,14.597,7.18,14.597,16.035V270.98z"/>
<rect x="254.312" y="120.337" fill="none" width="77.669" height="36.729"/>
<text transform="matrix(1 0 0 1 274.7188 131.2266)"><tspan x="0" y="0" fill="#E2007A" font-family="'MyriadPro-It'" font-size="15.3378">Praha </tspan><tspan x="-5.015" y="18.405" fill="#E2007A" font-family="'MyriadPro-It'" font-size="15.3378"> venkov</tspan></text>
<rect x="234.537" y="238.428" fill="none" width="98.862" height="46.75"/>
<text transform="matrix(1 0 0 1 241.7822 249.3179)"><tspan x="0" y="0" fill="#E2007A" font-family="'MyriadPro-It'" font-size="15.3378">délka vět text.</tspan><tspan x="11.633" y="18.405" fill="#E2007A" font-family="'MyriadPro-It'" font-size="15.3378">segmentů</tspan></text>
<rect x="180.094" y="290.758" fill="none" width="98.862" height="46.75"/>
<text transform="matrix(1 0 0 1 200.1694 301.6475)"><tspan x="0" y="0" fill="#E2007A" font-family="'MyriadPro-It'" font-size="15.3378">frekvence</tspan><tspan x="-15.867" y="18.405" fill="#E2007A" font-family="'MyriadPro-It'" font-size="15.3378">text. segmentů</tspan></text>
<path fill="none" stroke="#000000" stroke-width="2" stroke-miterlimit="10" d="M326.606,141.886
	c0,8.856-4.853,16.035-10.838,16.035h-43.652c-5.985,0-10.838-7.179-10.838-16.035V129.86c0-8.855,4.853-16.035,10.838-16.035
	h43.652c5.985,0,10.838,7.179,10.838,16.035V141.886z"/>
<path fill="none" stroke="#000000" stroke-width="2" stroke-miterlimit="10" d="M333.331,257.25c0,8.856-7.384,16.036-16.493,16.036
	h-66.426c-9.108,0-16.493-7.179-16.493-16.036v-12.026c0-8.856,7.384-16.035,16.493-16.035h66.426
	c9.108,0,16.493,7.179,16.493,16.035V257.25z"/>
<rect x="22.766" y="393.411" fill="none" width="98.862" height="46.749"/>
<text transform="matrix(1 0 0 1 47.7725 404.3003)"><tspan x="0" y="0" fill="#E2007A" font-family="'MyriadPro-It'" font-size="15.3378">analýza</tspan><tspan x="-10.361" y="18.405" fill="#E2007A" font-family="'MyriadPro-It'" font-size="15.3378">sentimentu</tspan></text>
<path fill="none" stroke="#000000" stroke-width="2" stroke-miterlimit="10" d="M120.227,414.9c0,8.855-7.384,16.035-16.493,16.035
	H37.308c-9.108,0-16.493-7.18-16.493-16.035v-12.026c0-8.855,7.384-16.035,16.493-16.035h66.426c9.108,0,16.493,7.18,16.493,16.035
	V414.9z"/>
<rect x="133.221" y="393.156" fill="none" width="98.862" height="46.749"/>
<text transform="matrix(1 0 0 1 164.6919 404.0454)"><tspan x="0" y="0" fill="#E2007A" font-family="'MyriadPro-It'" font-size="15.3378">slovní </tspan><tspan x="-1.665" y="18.405" fill="#E2007A" font-family="'MyriadPro-It'" font-size="15.3378">shluky</tspan></text>
<path fill="none" stroke="#000000" stroke-width="2" stroke-miterlimit="10" d="M230.148,414.9c0,8.855-7.384,16.035-16.493,16.035
	h-66.426c-9.108,0-16.493-7.18-16.493-16.035v-12.026c0-8.855,7.384-16.035,16.493-16.035h66.426c9.108,0,16.493,7.18,16.493,16.035
	V414.9z"/>
<rect x="339.145" y="400.912" fill="none" width="77.67" height="36.729"/>
<text transform="matrix(1 0 0 1 351.001 411.8013)" fill="#E2007A" font-family="'MyriadPro-It'" font-size="15.3378">boxploty</text>
<path fill="none" stroke="#000000" stroke-width="2" stroke-miterlimit="10" d="M408.797,415.984
	c0,8.856-4.853,16.035-10.838,16.035h-43.652c-5.985,0-10.838-7.179-10.838-16.035v-12.025c0-8.856,4.853-16.035,10.838-16.035
	h43.652c5.985,0,10.838,7.179,10.838,16.035V415.984z"/>
<path fill="none" stroke="#000000" stroke-width="2" stroke-miterlimit="10" d="M283.66,313.669c0,8.856-8.396,16.036-18.754,16.036
	h-75.536c-10.357,0-18.754-7.18-18.754-16.036v-12.026c0-8.856,8.397-16.035,18.754-16.035h75.536
	c10.358,0,18.754,7.179,18.754,16.035V313.669z"/>
<rect x="780.314" y="166.01" fill="none" width="98.862" height="46.75"/>
<text transform="matrix(1 0 0 1 792.1768 176.8994)"><tspan x="0" y="0" fill="#E2007A" font-family="'MyriadPro-It'" font-size="15.3378">vyhledávání</tspan><tspan x="3.818" y="18.405" fill="#E2007A" font-family="'MyriadPro-It'" font-size="15.3378">slov. druhů</tspan></text>
<path fill="none" stroke="#000000" stroke-width="2" stroke-miterlimit="10" d="M883.88,188.922c0,8.856-8.396,16.036-18.754,16.036
	H789.59c-10.357,0-18.755-7.18-18.755-16.036v-12.026c0-8.856,8.397-16.035,18.755-16.035h75.536
	c10.357,0,18.754,7.179,18.754,16.035V188.922z"/>
<rect x="913.242" y="164.987" fill="none" width="98.862" height="46.75"/>
<text transform="matrix(1 0 0 1 938.9922 175.877)"><tspan x="0" y="0" fill="#E2007A" font-family="'MyriadPro-It'" font-size="15.3378">procent</tspan><tspan x="-10.069" y="18.405" fill="#E2007A" font-family="'MyriadPro-It'" font-size="15.3378">slov. druhů</tspan></text>
<path fill="none" stroke="#000000" stroke-width="2" stroke-miterlimit="10" d="M1016.808,187.899
	c0,8.856-8.396,16.036-18.754,16.036h-75.536c-10.357,0-18.755-7.18-18.755-16.036v-12.025c0-8.856,8.397-16.035,18.755-16.035
	h75.536c10.358,0,18.754,7.179,18.754,16.035V187.899z"/>
<rect x="1018.229" y="318.987" fill="none" width="98.861" height="46.75"/>
<text transform="matrix(1 0 0 1 1027.2842 329.877)"><tspan x="0" y="0" fill="#E2007A" font-family="'MyriadPro-It'" font-size="15.3378">konkordance</tspan><tspan x="4.938" y="18.405" fill="#E2007A" font-family="'MyriadPro-It'" font-size="15.3378">v celém díle</tspan></text>
<path fill="none" stroke="#000000" stroke-width="2" stroke-miterlimit="10" d="M1122.127,339.232
	c0,8.856-8.396,16.036-18.754,16.036h-75.535c-10.358,0-18.755-7.18-18.755-16.036v-12.026c0-8.856,8.396-16.035,18.755-16.035
	h75.535c10.358,0,18.754,7.179,18.754,16.035V339.232z"/>
<rect x="818.147" y="248.834" fill="none" width="98.862" height="46.75"/>
<text transform="matrix(1 0 0 1 830.0098 259.7236)"><tspan x="0" y="0" fill="#E2007A" font-family="'MyriadPro-It'" font-size="15.3378">vyhledávání</tspan><tspan x="-7.646" y="18.405" fill="#E2007A" font-family="'MyriadPro-It'" font-size="15.3378">pozičními tagy</tspan></text>
<path fill="none" stroke="#000000" stroke-width="2" stroke-miterlimit="10" d="M921.713,271.746
	c0,8.856-8.396,16.036-18.754,16.036h-75.535c-10.358,0-18.756-7.18-18.756-16.036V259.72c0-8.856,8.397-16.035,18.756-16.035
	h75.535c10.358,0,18.754,7.179,18.754,16.035V271.746z"/>
<rect x="1077.868" y="390.964" fill="none" width="98.862" height="46.751"/>
<text transform="matrix(1 0 0 1 1089.7305 401.854)"><tspan x="0" y="0" fill="#E2007A" font-family="'MyriadPro-It'" font-size="15.3378">vyhledávání</tspan><tspan x="4.317" y="18.405" fill="#E2007A" font-family="'MyriadPro-It'" font-size="15.3378">type/token</tspan></text>
<path fill="none" stroke="#000000" stroke-width="2" stroke-miterlimit="10" d="M1181.434,413.876
	c0,8.856-8.396,16.036-18.754,16.036h-75.536c-10.357,0-18.755-7.18-18.755-16.036v-12.025c0-8.856,8.397-16.035,18.755-16.035
	h75.536c10.358,0,18.754,7.179,18.754,16.035V413.876z"/>
<rect x="293.594" y="291.098" fill="none" width="116.586" height="46.751"/>
<text transform="matrix(1 0 0 1 330.5752 301.9878)"><tspan x="0" y="0" fill="#E2007A" font-family="'MyriadPro-It'" font-size="15.3378">rytmus</tspan><tspan x="-29.195" y="18.405" fill="#E2007A" font-family="'MyriadPro-It'" font-size="15.3378">narat. segmentů</tspan></text>
<path fill="none" stroke="#000000" stroke-width="2" stroke-miterlimit="10" d="M412.498,314.352
	c0,8.856-9.156,16.036-20.451,16.036h-82.369c-11.294,0-20.451-7.18-20.451-16.036v-12.026c0-8.856,9.156-16.035,20.451-16.035
	h82.369c11.294,0,20.451,7.179,20.451,16.035V314.352z"/>
<rect x="520.447" y="120.402" fill="none" width="77.67" height="36.729"/>
<text transform="matrix(1 0 0 1 535.4854 131.2915)"><tspan x="0" y="0" fill="#E2007A" font-family="'MyriadPro-It'" font-size="15.3378">hustota</tspan><tspan x="10.583" y="18.405" fill="#E2007A" font-family="'MyriadPro-It'" font-size="15.3378">míst</tspan></text>
<g>
	<g>
		
			<line fill="none" stroke="#000000" stroke-width="2" stroke-miterlimit="10" x1="452.556" y1="73.085" x2="452.556" y2="103.975"/>
		<g>
			<polygon points="445.615,101.933 452.594,114.022 459.575,101.933 			"/>
		</g>
	</g>
</g>
<g>
	<g>
		<line fill="none" stroke="#000000" stroke-width="2" stroke-miterlimit="10" x1="375.5" y1="346.986" x2="375.5" y2="377.877"/>
		<g>
			<polygon points="368.559,375.834 375.538,387.924 382.519,375.834 			"/>
		</g>
	</g>
</g>
<g>
	<g>
		
			<line fill="none" stroke="#000000" stroke-width="2" stroke-miterlimit="10" x1="370.243" y1="73.596" x2="370.243" y2="104.486"/>
		<g>
			<polygon points="363.302,102.444 370.281,114.533 377.262,102.444 			"/>
		</g>
	</g>
</g>
<g>
	<g>
		
			<line fill="none" stroke="#000000" stroke-width="2" stroke-miterlimit="10" x1="294.321" y1="73.596" x2="294.321" y2="104.486"/>
		<g>
			<polygon points="287.379,102.444 294.359,114.533 301.34,102.444 			"/>
		</g>
	</g>
</g>
<line fill="none" stroke="#000000" stroke-width="2" stroke-miterlimit="10" x1="465.992" y1="73.047" x2="293.953" y2="73.047"/>
<line fill="none" stroke="#000000" stroke-width="2" stroke-miterlimit="10" x1="551.533" y1="73.047" x2="534.598" y2="73.047"/>
<g>
	<g>
		<line fill="none" stroke="#000000" stroke-width="2" stroke-miterlimit="10" x1="239.583" y1="6.817" x2="239.583" y2="210.146"/>
		<g>
			<polygon points="232.642,208.104 239.621,220.193 246.602,208.104 			"/>
		</g>
	</g>
</g>
<line fill="none" stroke="#000000" stroke-width="2" stroke-miterlimit="10" x1="761.79" y1="6.817" x2="1152.871" y2="6.817"/>
<g>
	<g>
		<line fill="none" stroke="#000000" stroke-width="2" stroke-miterlimit="10" x1="837.483" y1="6.817" x2="837.483" y2="139.337"/>
		<g>
			<polygon points="830.542,137.294 837.521,149.384 844.503,137.294 			"/>
		</g>
	</g>
</g>
<ellipse fill="none" stroke="#009036" stroke-width="3" stroke-miterlimit="10" cx="675.137" cy="78.789" rx="22.078" ry="10.214"/>
<ellipse fill="#FFFFFF" stroke="#009036" stroke-width="3" stroke-miterlimit="10" cx="675.227" cy="60.328" rx="22.047" ry="10.215"/>
<ellipse fill="#FFFFFF" stroke="#009036" stroke-width="3" stroke-miterlimit="10" cx="675.137" cy="41.869" rx="22.078" ry="10.216"/>
<line fill="none" stroke="#009036" stroke-width="3" stroke-miterlimit="10" x1="653.06" y1="41.869" x2="653.06" y2="78.25"/>
<line fill="none" stroke="#009036" stroke-width="3" stroke-miterlimit="10" x1="697.184" y1="41.734" x2="697.184" y2="78.026"/>
<text transform="matrix(1 0 0 1 641.8496 25.6899)" fill="#009EE0" font-family="'MyriadPro-Bold'" font-size="17.3829">KORPUS</text>
<text transform="matrix(1 0 0 1 595.25 10.8809)" font-family="'MyriadPro-It'" font-size="13">autor</text>
<text transform="matrix(1 0 0 1 727.4092 10.9189)" font-family="'MyriadPro-It'" font-size="13">autor</text>
<text transform="matrix(1 0 0 1 594.7998 62.4346)" fill="#9C9E9F" font-family="'MyriadPro-It'" font-size="13">autor</text>
<text transform="matrix(1 0 0 1 727.4834 62.6611)" fill="#9C9E9F" font-family="'MyriadPro-It'" font-size="13">autor</text>
<text transform="matrix(1 0 0 1 727.4834 117.6016)" fill="#9C9E9F" font-family="'MyriadPro-It'" font-size="13">autor</text>
<text transform="matrix(1 0 0 1 594.7617 117.564)" fill="#9C9E9F" font-family="'MyriadPro-It'" font-size="13">autor</text>
<g>
	<path fill="none" stroke="#000000" stroke-width="2" stroke-miterlimit="10" stroke-dasharray="1.9967,1.9967" d="M421.801,334.716
		c0,6.777-4.711,12.271-10.522,12.271H171.022c-5.812,0-10.522-5.494-10.522-12.271V231.441c0-6.777,4.71-12.271,10.522-12.271
		h240.256c5.812,0,10.522,5.494,10.522,12.271V334.716z"/>
</g>
<g>
	<path fill="none" stroke="#000000" stroke-width="2" stroke-miterlimit="10" stroke-dasharray="2.0047,2.0047" d="M251.773,439.013
		c0,6.776-5.494,12.271-12.27,12.271H13.27C6.494,451.284,1,445.79,1,439.013V383.03c0-6.776,5.494-12.27,12.27-12.27h226.233
		c6.776,0,12.27,5.494,12.27,12.27V439.013z"/>
</g>
<g>
	<g>
		<line fill="none" stroke="#000000" stroke-width="2" stroke-miterlimit="10" x1="91.099" y1="360.55" x2="91.099" y2="6.828"/>
		<g>
			<polygon points="98.041,358.508 91.061,370.597 84.08,358.508 			"/>
		</g>
	</g>
</g>
<path fill="none" stroke="#000000" stroke-width="2" stroke-miterlimit="10" stroke-dasharray="2" d="M1029.146,205.695
	c0,6.877-5.494,12.453-12.271,12.453H770.447c-6.775,0-12.27-5.576-12.27-12.453V161.07c0-6.877,5.494-12.453,12.27-12.453h246.428
	c6.776,0,12.271,5.576,12.271,12.453V205.695z"/>
<g>
	<g>
		
			<line fill="none" stroke="#000000" stroke-width="2" stroke-miterlimit="10" x1="1065.957" y1="286.657" x2="1065.957" y2="302.173"/>
		<g>
			<polygon points="1059.016,300.131 1065.995,312.22 1072.977,300.131 			"/>
		</g>
	</g>
</g>
<g>
	<g>
		
			<line fill="none" stroke="#000000" stroke-width="2" stroke-miterlimit="10" x1="1063.911" y1="5.464" x2="1063.911" y2="232.642"/>
		<g>
			<polygon points="1056.97,230.6 1063.949,242.689 1070.931,230.6 			"/>
		</g>
	</g>
</g>
<g>
	<g>
		
			<line fill="none" stroke="#000000" stroke-width="2" stroke-miterlimit="10" x1="867.587" y1="218.148" x2="867.587" y2="232.642"/>
		<g>
			<polygon points="860.646,230.6 867.625,242.689 874.606,230.6 			"/>
		</g>
	</g>
</g>
<g>
	<g>
		
			<line fill="none" stroke="#000000" stroke-width="2" stroke-miterlimit="10" x1="1152.871" y1="7.509" x2="1152.871" y2="374.773"/>
		<g>
			<polygon points="1145.93,372.731 1152.909,384.82 1159.891,372.731 			"/>
		</g>
	</g>
</g>
</svg>
