<?xml version="1.0" encoding="utf-8"?>
<!-- Generator: Adobe Illustrator 15.0.0, SVG Export Plug-In  -->
<!DOCTYPE svg PUBLIC "-//W3C//DTD SVG 1.1//EN" "http://www.w3.org/Graphics/SVG/1.1/DTD/svg11.dtd" [
	<!ENTITY ns_flows "http://ns.adobe.com/Flows/1.0/">
]>
<svg version="1.1"
	 xmlns="http://www.w3.org/2000/svg" xmlns:xlink="http://www.w3.org/1999/xlink" xmlns:a="http://ns.adobe.com/AdobeSVGViewerExtensions/3.0/"
	 x="0px" y="0px" width="720px" height="504px" viewBox="72 50.399 720 504" enable-background="new 72 50.399 720 504"
	 xml:space="preserve">
<defs>
</defs>
<rect fill="#FFFFFF" width="864" height="604.8"/>
<path fill="none" stroke="#000000" stroke-width="0.75" stroke-linecap="round" stroke-linejoin="round" stroke-miterlimit="10" d="
	M194.398,352.177V171.95"/>
<path fill="none" stroke="#000000" stroke-width="0.75" stroke-linecap="round" stroke-linejoin="round" stroke-miterlimit="10" d="
	M194.398,352.177h-12"/>
<path fill="none" stroke="#000000" stroke-width="0.75" stroke-linecap="round" stroke-linejoin="round" stroke-miterlimit="10" d="
	M194.398,292.103h-12"/>
<path fill="none" stroke="#000000" stroke-width="0.75" stroke-linecap="round" stroke-linejoin="round" stroke-miterlimit="10" d="
	M194.398,232.024h-12"/>
<path fill="none" stroke="#000000" stroke-width="0.75" stroke-linecap="round" stroke-linejoin="round" stroke-miterlimit="10" d="
	M194.398,171.95h-12"/>
<path d="M158.539,365.247c-1.691,0-3.055-0.172-4.086-0.52s-1.828-0.867-2.387-1.555s-0.84-1.551-0.84-2.594
	c0-0.766,0.156-1.441,0.465-2.02s0.754-1.059,1.336-1.434c0.582-0.379,1.293-0.676,2.129-0.891s1.965-0.32,3.387-0.32
	c1.68,0,3.035,0.172,4.066,0.516s1.828,0.859,2.391,1.547s0.848,1.555,0.848,2.602c0,1.383-0.496,2.465-1.484,3.254
	C163.172,364.778,161.23,365.247,158.539,365.247 M158.539,363.442c2.352,0,3.918-0.273,4.695-0.824s1.168-1.23,1.168-2.039
	c0-0.805-0.391-1.484-1.172-2.035s-2.344-0.824-4.688-0.824c-2.359,0-3.926,0.273-4.699,0.824s-1.164,1.234-1.164,2.055
	c0,0.809,0.344,1.453,1.027,1.934C154.578,363.138,156.191,363.442,158.539,363.442z"/>
<path d="M165.602,353.14h-2v-2.004h2V353.14z"/>
<path d="M158.539,348.567c-1.691,0-3.055-0.172-4.086-0.52s-1.828-0.867-2.387-1.555s-0.84-1.551-0.84-2.594
	c0-0.766,0.156-1.441,0.465-2.02s0.754-1.059,1.336-1.434c0.582-0.379,1.293-0.676,2.129-0.891s1.965-0.32,3.387-0.32
	c1.68,0,3.035,0.172,4.066,0.516s1.828,0.859,2.391,1.547s0.848,1.555,0.848,2.602c0,1.383-0.496,2.465-1.484,3.254
	C163.172,348.099,161.23,348.567,158.539,348.567 M158.539,346.763c2.352,0,3.918-0.273,4.695-0.824s1.168-1.23,1.168-2.039
	c0-0.805-0.391-1.484-1.172-2.035s-2.344-0.824-4.688-0.824c-2.359,0-3.926,0.273-4.699,0.824s-1.164,1.234-1.164,2.055
	c0,0.809,0.344,1.453,1.027,1.934C154.578,346.458,156.191,346.763,158.539,346.763z"/>
<path d="M158.539,305.173c-1.691,0-3.055-0.172-4.086-0.52s-1.828-0.867-2.387-1.555s-0.84-1.551-0.84-2.594
	c0-0.766,0.156-1.441,0.465-2.02s0.754-1.059,1.336-1.434c0.582-0.379,1.293-0.676,2.129-0.891s1.965-0.32,3.387-0.32
	c1.68,0,3.035,0.172,4.066,0.516s1.828,0.859,2.391,1.547s0.848,1.555,0.848,2.602c0,1.383-0.496,2.465-1.484,3.254
	C163.172,304.704,161.23,305.173,158.539,305.173 M158.539,303.368c2.352,0,3.918-0.273,4.695-0.824s1.168-1.23,1.168-2.039
	c0-0.805-0.391-1.484-1.172-2.035s-2.344-0.824-4.688-0.824c-2.359,0-3.926,0.273-4.699,0.824s-1.164,1.234-1.164,2.055
	c0,0.809,0.344,1.453,1.027,1.934C154.578,303.063,156.191,303.368,158.539,303.368z"/>
<path d="M165.602,293.065h-2v-2.004h2V293.065z"/>
<path d="M161.852,288.493l-0.156-1.844c0.898-0.137,1.574-0.453,2.027-0.953c0.453-0.496,0.68-1.098,0.68-1.801
	c0-0.848-0.32-1.563-0.957-2.148c-0.641-0.586-1.484-0.879-2.539-0.879c-1.004,0-1.797,0.281-2.375,0.844s-0.867,1.301-0.867,2.211
	c0,0.566,0.125,1.078,0.383,1.535s0.594,0.813,1,1.074l-0.211,1.648l-7.355-1.387v-7.117h1.68v5.711l3.848,0.773
	c-0.598-0.859-0.898-1.762-0.898-2.707c0-1.25,0.434-2.301,1.297-3.16c0.867-0.859,1.98-1.289,3.344-1.289
	c1.293,0,2.414,0.375,3.359,1.133c1.156,0.914,1.738,2.168,1.738,3.758c0,1.301-0.367,2.363-1.094,3.188
	C164.023,287.907,163.055,288.376,161.852,288.493z"/>
<path d="M165.602,238.474v1.758h-11.203c0.406,0.426,0.809,0.98,1.211,1.668c0.406,0.688,0.707,1.301,0.91,1.848h-1.699
	c-0.461-0.98-1.023-1.84-1.68-2.578c-0.656-0.734-1.297-1.254-1.914-1.563v-1.133H165.602z"/>
<path d="M165.602,232.987h-2v-2.004h2V232.987z"/>
<path d="M158.539,228.415c-1.691,0-3.055-0.172-4.086-0.52s-1.828-0.867-2.387-1.555s-0.84-1.551-0.84-2.594
	c0-0.766,0.156-1.441,0.465-2.02s0.754-1.059,1.336-1.434c0.582-0.379,1.293-0.676,2.129-0.891s1.965-0.32,3.387-0.32
	c1.68,0,3.035,0.172,4.066,0.516s1.828,0.859,2.391,1.547s0.848,1.555,0.848,2.602c0,1.383-0.496,2.465-1.484,3.254
	C163.172,227.946,161.23,228.415,158.539,228.415 M158.539,226.61c2.352,0,3.918-0.273,4.695-0.824s1.168-1.23,1.168-2.039
	c0-0.805-0.391-1.484-1.172-2.035s-2.344-0.824-4.688-0.824c-2.359,0-3.926,0.273-4.699,0.824s-1.164,1.234-1.164,2.055
	c0,0.809,0.344,1.453,1.027,1.934C154.578,226.306,156.191,226.61,158.539,226.61z"/>
<path d="M165.602,178.399v1.758h-11.203c0.406,0.426,0.809,0.98,1.211,1.668c0.406,0.688,0.707,1.301,0.91,1.848h-1.699
	c-0.461-0.98-1.023-1.84-1.68-2.578c-0.656-0.734-1.297-1.254-1.914-1.563v-1.133H165.602z"/>
<path d="M165.602,172.913h-2v-2.004h2V172.913z"/>
<path d="M161.852,168.341l-0.156-1.844c0.898-0.137,1.574-0.453,2.027-0.953c0.453-0.496,0.68-1.098,0.68-1.801
	c0-0.848-0.32-1.563-0.957-2.148c-0.641-0.586-1.484-0.879-2.539-0.879c-1.004,0-1.797,0.281-2.375,0.844s-0.867,1.301-0.867,2.211
	c0,0.566,0.125,1.078,0.383,1.535s0.594,0.813,1,1.074l-0.211,1.648l-7.355-1.387v-7.117h1.68v5.711l3.848,0.773
	c-0.598-0.859-0.898-1.762-0.898-2.707c0-1.25,0.434-2.301,1.297-3.16c0.867-0.859,1.98-1.289,3.344-1.289
	c1.293,0,2.414,0.375,3.359,1.133c1.156,0.914,1.738,2.168,1.738,3.758c0,1.301-0.367,2.363-1.094,3.188
	C164.023,167.755,163.055,168.224,161.852,168.341z"/>
<path fill="none" stroke="#000000" stroke-width="0.75" stroke-linecap="round" stroke-linejoin="round" stroke-miterlimit="10" d="
	M371.777,156.622H270.668"/>
<path fill="none" stroke="#000000" stroke-width="0.75" stroke-linecap="round" stroke-linejoin="round" stroke-miterlimit="10" d="
	M270.668,156.622L270.668,156.622"/>
<path fill="none" stroke="#000000" stroke-width="0.75" stroke-linecap="round" stroke-linejoin="round" stroke-miterlimit="10" d="
	M371.777,156.622h101.113"/>
<path fill="none" stroke="#000000" stroke-width="0.75" stroke-linecap="round" stroke-linejoin="round" stroke-miterlimit="10" d="
	M472.891,156.622v70.285"/>
<path fill="#00FF00" d="M277.746,364.536H263.43v-1.895h12.629v-7.051h1.688V364.536z"/>
<path fill="#00FF00" d="M277.746,346.761h-1.523c1.172,0.809,1.758,1.906,1.758,3.293c0,0.613-0.117,1.184-0.352,1.715
	s-0.527,0.922-0.883,1.18s-0.789,0.438-1.305,0.543c-0.344,0.07-0.891,0.105-1.641,0.105h-6.426v-1.758h5.754
	c0.914,0,1.535-0.035,1.852-0.105c0.465-0.109,0.828-0.344,1.09-0.703c0.266-0.359,0.398-0.801,0.398-1.328
	s-0.137-1.023-0.406-1.484s-0.641-0.789-1.105-0.98s-1.141-0.289-2.023-0.289h-5.559v-1.758h10.371V346.761z"/>
<path fill="#00FF00" d="M277.746,343.606l-5.391-3.789l-4.98,3.508v-2.199l2.434-1.59c0.461-0.301,0.848-0.539,1.16-0.723
	c-0.43-0.285-0.809-0.551-1.145-0.793l-2.449-1.746v-2.098l4.883,3.582l5.488-3.855v2.156l-3.223,2.129l-0.871,0.566l4.094,2.727
	V343.606z"/>
<path fill="#00FF00" d="M274.406,325.337l0.227-1.816c1.059,0.285,1.883,0.816,2.469,1.594c0.586,0.773,0.879,1.762,0.879,2.969
	c0,1.516-0.469,2.719-1.402,3.605c-0.934,0.891-2.242,1.332-3.93,1.332c-1.746,0-3.098-0.449-4.063-1.348s-1.445-2.063-1.445-3.496
	c0-1.387,0.473-2.516,1.418-3.398c0.941-0.875,2.27-1.316,3.984-1.316c0.102,0,0.258,0.004,0.469,0.012v7.73
	c1.137-0.063,2.008-0.387,2.617-0.965c0.605-0.578,0.906-1.301,0.906-2.168c0-0.645-0.168-1.195-0.508-1.652
	C275.688,325.966,275.148,325.603,274.406,325.337 M271.566,331.106v-5.789c-0.875,0.078-1.527,0.301-1.965,0.664
	c-0.676,0.559-1.016,1.285-1.016,2.176c0,0.809,0.27,1.488,0.809,2.039C269.938,330.747,270.66,331.048,271.566,331.106z"/>
<path fill="#00FF00" d="M277.746,321.312h-10.371v-1.57h1.457c-0.508-0.324-0.918-0.758-1.227-1.301
	c-0.309-0.539-0.465-1.152-0.465-1.844c0-0.77,0.16-1.398,0.48-1.891c0.316-0.492,0.762-0.836,1.336-1.039
	c-1.211-0.82-1.816-1.887-1.816-3.203c0-1.027,0.285-1.82,0.855-2.371c0.57-0.555,1.445-0.832,2.633-0.832h7.117v1.746h-6.531
	c-0.703,0-1.211,0.059-1.52,0.172s-0.559,0.32-0.746,0.621c-0.191,0.301-0.285,0.652-0.285,1.055c0,0.73,0.242,1.336,0.727,1.816
	s1.262,0.723,2.332,0.723h6.023v1.758h-6.738c-0.781,0-1.367,0.145-1.758,0.43s-0.586,0.754-0.586,1.406
	c0,0.496,0.129,0.953,0.391,1.371c0.262,0.422,0.641,0.727,1.145,0.914c0.5,0.188,1.223,0.281,2.164,0.281h5.383V321.312z"/>
<path fill="#00FF00" d="M277.746,303.034v1.629H263.43v-1.758h5.105c-0.93-0.742-1.395-1.691-1.395-2.844
	c0-0.637,0.129-1.238,0.387-1.809s0.617-1.039,1.082-1.406s1.027-0.656,1.688-0.867c0.656-0.207,1.359-0.313,2.109-0.313
	c1.777,0,3.148,0.441,4.121,1.32c0.969,0.879,1.453,1.934,1.453,3.164c0,1.223-0.512,2.184-1.531,2.883H277.746 M272.48,303.05
	c1.246,0,2.145-0.168,2.695-0.508c0.906-0.551,1.359-1.301,1.359-2.242c0-0.77-0.332-1.434-1-1.992
	c-0.668-0.563-1.664-0.844-2.984-0.844c-1.355,0-2.352,0.27-3,0.809c-0.641,0.535-0.965,1.184-0.965,1.945
	c0,0.77,0.332,1.434,1,1.992C270.254,302.772,271.219,303.05,272.48,303.05z"/>
<path fill="#00FF00" d="M277.746,286.731h-1.523c1.172,0.809,1.758,1.906,1.758,3.293c0,0.613-0.117,1.184-0.352,1.715
	s-0.527,0.922-0.883,1.18s-0.789,0.438-1.305,0.543c-0.344,0.07-0.891,0.105-1.641,0.105h-6.426v-1.758h5.754
	c0.914,0,1.535-0.035,1.852-0.105c0.465-0.109,0.828-0.344,1.09-0.703c0.266-0.359,0.398-0.801,0.398-1.328
	s-0.137-1.023-0.406-1.484s-0.641-0.789-1.105-0.98s-1.141-0.289-2.023-0.289h-5.559v-1.758h10.371V286.731z"/>
<path fill="#00FF00" d="M277.746,282.429l-10.371-0.004v-1.582h1.574c-0.738-0.402-1.223-0.773-1.457-1.117
	c-0.234-0.34-0.352-0.715-0.352-1.129c0-0.59,0.188-1.191,0.566-1.805l1.633,0.605c-0.254,0.43-0.383,0.859-0.383,1.289
	c0,0.383,0.117,0.73,0.348,1.035s0.551,0.523,0.961,0.652c0.625,0.195,1.309,0.293,2.051,0.293l5.43,0.004V282.429z"/>
<path fill="#00FF00" d="M274.652,276.448l-0.273-1.734c0.695-0.102,1.227-0.371,1.602-0.816c0.371-0.445,0.555-1.07,0.555-1.871
	c0-0.809-0.164-1.406-0.492-1.797s-0.715-0.586-1.156-0.586c-0.398,0-0.711,0.172-0.938,0.516c-0.156,0.242-0.355,0.844-0.598,1.797
	c-0.324,1.289-0.605,2.184-0.844,2.684c-0.238,0.496-0.566,0.875-0.988,1.133c-0.418,0.258-0.883,0.383-1.391,0.383
	c-0.461,0-0.891-0.105-1.285-0.316s-0.719-0.5-0.98-0.863c-0.203-0.273-0.371-0.645-0.512-1.117s-0.211-0.98-0.211-1.52
	c0-0.813,0.117-1.527,0.352-2.145c0.234-0.613,0.551-1.066,0.953-1.363c0.398-0.289,0.934-0.492,1.605-0.602l0.234,1.715
	c-0.535,0.078-0.949,0.305-1.25,0.68s-0.449,0.902-0.449,1.586c0,0.809,0.133,1.387,0.402,1.73c0.266,0.344,0.578,0.516,0.938,0.516
	c0.227,0,0.43-0.07,0.613-0.215c0.188-0.141,0.344-0.367,0.469-0.672c0.066-0.176,0.215-0.691,0.449-1.551
	c0.332-1.246,0.605-2.113,0.816-2.605s0.52-0.875,0.922-1.156s0.906-0.418,1.504-0.418c0.586,0,1.137,0.168,1.656,0.512
	c0.516,0.34,0.918,0.836,1.199,1.48c0.285,0.641,0.426,1.371,0.426,2.188c0,1.344-0.281,2.371-0.84,3.078
	S275.75,276.253,274.652,276.448z"/>
<path fill="#00FF00" d="M277.746,265.737H263.43v-1.758h8.164l-4.219-4.16v-2.277l3.848,3.969l6.523-4.367v2.168l-5.305,3.426
	l1.195,1.242h4.109V265.737z"/>
<path fill="#00FF00" d="M276.469,248.979c0.551,0.652,0.941,1.277,1.172,1.879c0.227,0.602,0.34,1.25,0.34,1.941
	c0,1.137-0.277,2.012-0.836,2.625c-0.555,0.613-1.266,0.918-2.133,0.918c-0.508,0-0.973-0.117-1.391-0.348
	c-0.422-0.23-0.758-0.531-1.012-0.906s-0.445-0.797-0.574-1.266c-0.094-0.344-0.18-0.867-0.266-1.563
	c-0.168-1.418-0.371-2.465-0.605-3.133c-0.242-0.008-0.395-0.012-0.457-0.012c-0.719,0-1.223,0.164-1.516,0.496
	c-0.398,0.449-0.594,1.117-0.594,2.004c0,0.828,0.145,1.438,0.434,1.832s0.801,0.684,1.535,0.871l-0.234,1.719
	c-0.734-0.152-1.328-0.41-1.781-0.77s-0.801-0.875-1.043-1.555c-0.246-0.676-0.367-1.461-0.367-2.352
	c0-0.887,0.105-1.605,0.313-2.16c0.207-0.551,0.469-0.957,0.785-1.219s0.715-0.441,1.195-0.547c0.301-0.059,0.844-0.09,1.625-0.09
	h2.344c1.633,0,2.664-0.035,3.098-0.109s0.848-0.223,1.246-0.445v1.836C277.383,248.812,276.957,248.929,276.469,248.979
	 M272.543,249.128c0.258,0.637,0.48,1.594,0.664,2.867c0.102,0.727,0.219,1.234,0.352,1.535c0.129,0.301,0.32,0.531,0.57,0.691
	c0.25,0.164,0.527,0.246,0.836,0.246c0.469,0,0.859-0.176,1.172-0.531s0.469-0.875,0.469-1.559c0-0.676-0.148-1.281-0.445-1.805
	c-0.297-0.531-0.703-0.918-1.215-1.164c-0.398-0.188-0.984-0.281-1.758-0.281H272.543 M266.086,252.542l-2.734-1.297v-2.305
	l2.734,2.148V252.542z"/>
<path fill="#00FF00" d="M277.746,239.995h-1.426l-7.578-6.602c0.039,0.75,0.059,1.41,0.059,1.98v4.23h-1.426v-8.477h1.16
	l6.586,5.617l1.199,1.082c-0.059-0.789-0.086-1.527-0.086-2.215v-4.797h1.512V239.995z"/>
<path fill="#00FF00" d="M276.469,222.3c0.551,0.652,0.941,1.277,1.172,1.879c0.227,0.602,0.34,1.25,0.34,1.941
	c0,1.137-0.277,2.012-0.836,2.625c-0.555,0.613-1.266,0.918-2.133,0.918c-0.508,0-0.973-0.117-1.391-0.348
	c-0.422-0.23-0.758-0.531-1.012-0.906s-0.445-0.797-0.574-1.266c-0.094-0.344-0.18-0.867-0.266-1.563
	c-0.168-1.418-0.371-2.465-0.605-3.133c-0.242-0.008-0.395-0.012-0.457-0.012c-0.719,0-1.223,0.164-1.516,0.496
	c-0.398,0.449-0.594,1.117-0.594,2.004c0,0.828,0.145,1.438,0.434,1.832s0.801,0.684,1.535,0.871l-0.234,1.719
	c-0.734-0.152-1.328-0.41-1.781-0.77s-0.801-0.875-1.043-1.555c-0.246-0.676-0.367-1.461-0.367-2.352
	c0-0.887,0.105-1.605,0.313-2.16c0.207-0.551,0.469-0.957,0.785-1.219s0.715-0.441,1.195-0.547c0.301-0.059,0.844-0.09,1.625-0.09
	h2.344c1.633,0,2.664-0.035,3.098-0.109s0.848-0.223,1.246-0.445v1.836C277.383,222.132,276.957,222.249,276.469,222.3
	 M272.543,222.448c0.258,0.637,0.48,1.594,0.664,2.867c0.102,0.727,0.219,1.234,0.352,1.535c0.129,0.301,0.32,0.531,0.57,0.691
	c0.25,0.164,0.527,0.246,0.836,0.246c0.469,0,0.859-0.176,1.172-0.531s0.469-0.875,0.469-1.559c0-0.676-0.148-1.281-0.445-1.805
	c-0.297-0.531-0.703-0.918-1.215-1.164c-0.398-0.188-0.984-0.281-1.758-0.281H272.543z"/>
<path fill="#00FF00" d="M277.746,217.942H263.43v-1.758h5.137c-0.949-0.816-1.426-1.852-1.426-3.105c0-0.766,0.152-1.434,0.453-2
	c0.305-0.566,0.723-0.973,1.254-1.215c0.535-0.246,1.313-0.367,2.328-0.367h6.57v1.758h-6.57c-0.879,0-1.52,0.191-1.922,0.57
	c-0.398,0.383-0.602,0.922-0.602,1.617c0,0.52,0.137,1.012,0.406,1.469c0.27,0.461,0.637,0.785,1.102,0.98
	c0.461,0.195,1.098,0.293,1.914,0.293h5.672V217.942z"/>
<path fill="#00FF00" d="M277.746,206.843l-10.371-0.004v-1.582h1.574c-0.738-0.402-1.223-0.773-1.457-1.117
	c-0.234-0.34-0.352-0.715-0.352-1.129c0-0.59,0.188-1.191,0.566-1.805l1.633,0.605c-0.254,0.43-0.383,0.859-0.383,1.289
	c0,0.383,0.117,0.73,0.348,1.035s0.551,0.523,0.961,0.652c0.625,0.195,1.309,0.293,2.051,0.293l5.43,0.004V206.843z"/>
<path fill="#00FF00" d="M276.469,193.394c0.551,0.652,0.941,1.277,1.172,1.879c0.227,0.602,0.34,1.25,0.34,1.941
	c0,1.137-0.277,2.012-0.836,2.625c-0.555,0.613-1.266,0.918-2.133,0.918c-0.508,0-0.973-0.117-1.391-0.348
	c-0.422-0.23-0.758-0.531-1.012-0.906s-0.445-0.797-0.574-1.266c-0.094-0.344-0.18-0.867-0.266-1.563
	c-0.168-1.418-0.371-2.465-0.605-3.133c-0.242-0.008-0.395-0.012-0.457-0.012c-0.719,0-1.223,0.164-1.516,0.496
	c-0.398,0.449-0.594,1.117-0.594,2.004c0,0.828,0.145,1.438,0.434,1.832s0.801,0.684,1.535,0.871l-0.234,1.719
	c-0.734-0.152-1.328-0.41-1.781-0.77s-0.801-0.875-1.043-1.555c-0.246-0.676-0.367-1.461-0.367-2.352
	c0-0.887,0.105-1.605,0.313-2.16c0.207-0.551,0.469-0.957,0.785-1.219s0.715-0.441,1.195-0.547c0.301-0.059,0.844-0.09,1.625-0.09
	h2.344c1.633,0,2.664-0.035,3.098-0.109s0.848-0.223,1.246-0.445v1.836C277.383,193.226,276.957,193.343,276.469,193.394
	 M272.543,193.542c0.258,0.637,0.48,1.594,0.664,2.867c0.102,0.727,0.219,1.234,0.352,1.535c0.129,0.301,0.32,0.531,0.57,0.691
	c0.25,0.164,0.527,0.246,0.836,0.246c0.469,0,0.859-0.176,1.172-0.531s0.469-0.875,0.469-1.559c0-0.676-0.148-1.281-0.445-1.805
	c-0.297-0.531-0.703-0.918-1.215-1.164c-0.398-0.188-0.984-0.281-1.758-0.281H272.543z"/>
<path fill="#00FF00" d="M277.746,182.31h-1.309c1.027,0.656,1.543,1.625,1.543,2.898c0,0.828-0.227,1.59-0.684,2.281
	c-0.457,0.695-1.094,1.23-1.91,1.613c-0.816,0.379-1.754,0.57-2.816,0.57c-1.035,0-1.973-0.172-2.816-0.52
	c-0.844-0.344-1.488-0.859-1.938-1.551c-0.453-0.691-0.676-1.461-0.676-2.316c0-0.625,0.133-1.18,0.395-1.668
	c0.266-0.488,0.609-0.887,1.031-1.191h-5.137v-1.75h14.316V182.31 M272.57,187.864c1.328,0.004,2.32-0.277,2.98-0.836
	c0.656-0.563,0.984-1.223,0.984-1.984c0-0.77-0.313-1.422-0.941-1.957c-0.629-0.539-1.586-0.809-2.875-0.809
	c-1.422,0-2.461,0.273-3.129,0.82c-0.664,0.547-0.992,1.223-0.992,2.023c0,0.781,0.316,1.434,0.953,1.957
	C270.191,187.603,271.195,187.868,272.57,187.864z"/>
<path fill="#00FF00" d="M276.469,171.147c0.551,0.652,0.941,1.277,1.172,1.879c0.227,0.602,0.34,1.25,0.34,1.941
	c0,1.137-0.277,2.012-0.836,2.625c-0.555,0.613-1.266,0.918-2.133,0.918c-0.508,0-0.973-0.117-1.391-0.348
	c-0.422-0.23-0.758-0.531-1.012-0.906s-0.445-0.797-0.574-1.266c-0.094-0.344-0.18-0.867-0.266-1.563
	c-0.168-1.418-0.371-2.465-0.605-3.133c-0.242-0.008-0.395-0.012-0.457-0.012c-0.719,0-1.223,0.164-1.516,0.496
	c-0.398,0.449-0.594,1.117-0.594,2.004c0,0.828,0.145,1.438,0.434,1.832s0.801,0.684,1.535,0.871l-0.234,1.719
	c-0.734-0.152-1.328-0.41-1.781-0.77s-0.801-0.875-1.043-1.555c-0.246-0.676-0.367-1.461-0.367-2.352
	c0-0.887,0.105-1.605,0.313-2.16c0.207-0.551,0.469-0.957,0.785-1.219s0.715-0.441,1.195-0.547c0.301-0.059,0.844-0.09,1.625-0.09
	h2.344c1.633,0,2.664-0.035,3.098-0.109s0.848-0.223,1.246-0.445v1.836C277.383,170.979,276.957,171.097,276.469,171.147
	 M272.543,171.296c0.258,0.637,0.48,1.594,0.664,2.867c0.102,0.727,0.219,1.234,0.352,1.535c0.129,0.301,0.32,0.531,0.57,0.691
	c0.25,0.164,0.527,0.246,0.836,0.246c0.469,0,0.859-0.176,1.172-0.531s0.469-0.875,0.469-1.559c0-0.676-0.148-1.281-0.445-1.805
	c-0.297-0.531-0.703-0.918-1.215-1.164c-0.398-0.188-0.984-0.281-1.758-0.281H272.543z"/>
<path fill="none" stroke="#000000" stroke-width="0.75" stroke-linecap="round" stroke-linejoin="round" stroke-miterlimit="10" d="
	M472.891,226.907h-86.668"/>
<path fill="none" stroke="#000000" stroke-width="0.75" stroke-linecap="round" stroke-linejoin="round" stroke-miterlimit="10" d="
	M386.223,226.907L386.223,226.907"/>
<path fill="none" stroke="#000000" stroke-width="0.75" stroke-linecap="round" stroke-linejoin="round" stroke-miterlimit="10" d="
	M472.891,226.907h86.664"/>
<path fill="none" stroke="#000000" stroke-width="0.75" stroke-linecap="round" stroke-linejoin="round" stroke-miterlimit="10" d="
	M559.555,226.907v11.172"/>
<path d="M393.301,514.052l-14.316,5.543v-2.051l10.402-3.719c0.832-0.301,1.613-0.551,2.344-0.75
	c-0.781-0.223-1.563-0.48-2.344-0.773l-10.402-3.867v-1.934l14.316,5.605V514.052z"/>
<path d="M393.301,505.048l-10.371-0.004v-1.582h1.574c-0.738-0.402-1.223-0.773-1.457-1.117c-0.234-0.34-0.352-0.715-0.352-1.129
	c0-0.59,0.188-1.191,0.566-1.805l1.633,0.605c-0.254,0.43-0.383,0.859-0.383,1.289c0,0.383,0.117,0.73,0.348,1.035
	s0.551,0.523,0.961,0.652c0.625,0.195,1.309,0.293,2.051,0.293l5.43,0.004V505.048z"/>
<path d="M392.023,491.599c0.551,0.652,0.941,1.277,1.172,1.879c0.227,0.602,0.34,1.25,0.34,1.941c0,1.137-0.277,2.012-0.836,2.625
	c-0.555,0.613-1.266,0.918-2.133,0.918c-0.508,0-0.973-0.117-1.391-0.348c-0.422-0.23-0.758-0.531-1.012-0.906
	s-0.445-0.797-0.574-1.266c-0.094-0.344-0.18-0.867-0.266-1.563c-0.168-1.418-0.371-2.465-0.605-3.133
	c-0.242-0.008-0.395-0.012-0.457-0.012c-0.719,0-1.223,0.164-1.516,0.496c-0.398,0.449-0.594,1.117-0.594,2.004
	c0,0.828,0.145,1.438,0.434,1.832s0.801,0.684,1.535,0.871l-0.234,1.719c-0.734-0.152-1.328-0.41-1.781-0.77
	s-0.801-0.875-1.043-1.555c-0.246-0.676-0.367-1.461-0.367-2.352c0-0.887,0.105-1.605,0.313-2.16
	c0.207-0.551,0.469-0.957,0.785-1.219s0.715-0.441,1.195-0.547c0.301-0.059,0.844-0.09,1.625-0.09h2.344
	c1.633,0,2.664-0.035,3.098-0.109s0.848-0.223,1.246-0.445v1.836C392.938,491.431,392.512,491.548,392.023,491.599 M388.098,491.747
	c0.258,0.637,0.48,1.594,0.664,2.867c0.102,0.727,0.219,1.234,0.352,1.535c0.129,0.301,0.32,0.531,0.57,0.691
	c0.25,0.164,0.527,0.246,0.836,0.246c0.469,0,0.859-0.176,1.172-0.531s0.469-0.875,0.469-1.559c0-0.676-0.148-1.281-0.445-1.805
	c-0.297-0.531-0.703-0.918-1.215-1.164c-0.398-0.188-0.984-0.281-1.758-0.281H388.098z"/>
<path d="M393.301,488.171h-1.426l-7.578-6.602c0.039,0.75,0.059,1.41,0.059,1.98v4.23h-1.426v-8.477h1.16l6.586,5.617l1.199,1.082
	c-0.059-0.789-0.086-1.527-0.086-2.215v-4.797h1.512V488.171 M380.566,483.257l-1.66-1.074v-1.988l2.734,2.195v1.875l-2.734,2.109
	v-2.012L380.566,483.257z"/>
<path d="M393.301,470.515h-1.309c1.027,0.656,1.543,1.625,1.543,2.898c0,0.828-0.227,1.59-0.684,2.281
	c-0.457,0.695-1.094,1.23-1.91,1.613c-0.816,0.379-1.754,0.57-2.816,0.57c-1.035,0-1.973-0.172-2.816-0.52
	c-0.844-0.344-1.488-0.859-1.938-1.551c-0.453-0.691-0.676-1.461-0.676-2.316c0-0.625,0.133-1.18,0.395-1.668
	c0.266-0.488,0.609-0.887,1.031-1.191h-5.137v-1.75h14.316V470.515 M388.125,476.069c1.328,0.004,2.32-0.277,2.98-0.836
	c0.656-0.563,0.984-1.223,0.984-1.984c0-0.77-0.313-1.422-0.941-1.957c-0.629-0.539-1.586-0.809-2.875-0.809
	c-1.422,0-2.461,0.273-3.129,0.82c-0.664,0.547-0.992,1.223-0.992,2.023c0,0.781,0.316,1.434,0.953,1.957
	C385.746,475.808,386.75,476.073,388.125,476.069z"/>
<path d="M392.023,459.353c0.551,0.652,0.941,1.277,1.172,1.879c0.227,0.602,0.34,1.25,0.34,1.941c0,1.137-0.277,2.012-0.836,2.625
	c-0.555,0.613-1.266,0.918-2.133,0.918c-0.508,0-0.973-0.117-1.391-0.348c-0.422-0.23-0.758-0.531-1.012-0.906
	s-0.445-0.797-0.574-1.266c-0.094-0.344-0.18-0.867-0.266-1.563c-0.168-1.418-0.371-2.465-0.605-3.133
	c-0.242-0.008-0.395-0.012-0.457-0.012c-0.719,0-1.223,0.164-1.516,0.496c-0.398,0.449-0.594,1.117-0.594,2.004
	c0,0.828,0.145,1.438,0.434,1.832s0.801,0.684,1.535,0.871l-0.234,1.719c-0.734-0.152-1.328-0.41-1.781-0.77
	s-0.801-0.875-1.043-1.555c-0.246-0.676-0.367-1.461-0.367-2.352c0-0.887,0.105-1.605,0.313-2.16
	c0.207-0.551,0.469-0.957,0.785-1.219s0.715-0.441,1.195-0.547c0.301-0.059,0.844-0.09,1.625-0.09h2.344
	c1.633,0,2.664-0.035,3.098-0.109s0.848-0.223,1.246-0.445v1.836C392.938,459.185,392.512,459.302,392.023,459.353 M388.098,459.501
	c0.258,0.637,0.48,1.594,0.664,2.867c0.102,0.727,0.219,1.234,0.352,1.535c0.129,0.301,0.32,0.531,0.57,0.691
	c0.25,0.164,0.527,0.246,0.836,0.246c0.469,0,0.859-0.176,1.172-0.531s0.469-0.875,0.469-1.559c0-0.676-0.148-1.281-0.445-1.805
	c-0.297-0.531-0.703-0.918-1.215-1.164c-0.398-0.188-0.984-0.281-1.758-0.281H388.098z"/>
<path d="M393.301,446.56l-10.371,3.945v-1.855l6.211-2.227c0.672-0.242,1.367-0.461,2.09-0.664
	c-0.547-0.156-1.203-0.375-1.973-0.656l-6.328-2.305v-1.805l10.371,3.926V446.56z"/>
<path d="M393.301,433.882h-14.316v-1.758h5.137c-0.949-0.816-1.426-1.852-1.426-3.105c0-0.766,0.152-1.434,0.453-2
	c0.305-0.566,0.723-0.973,1.254-1.215c0.535-0.246,1.313-0.367,2.328-0.367h6.57v1.758h-6.57c-0.879,0-1.52,0.191-1.922,0.57
	c-0.398,0.383-0.602,0.922-0.602,1.617c0,0.52,0.137,1.012,0.406,1.469c0.27,0.461,0.637,0.785,1.102,0.98
	c0.461,0.195,1.098,0.293,1.914,0.293h5.672V433.882z"/>
<path d="M388.113,423.415c-1.918,0-3.34-0.535-4.266-1.602c-0.77-0.891-1.152-1.98-1.152-3.262c0-1.426,0.469-2.59,1.402-3.496
	s2.223-1.359,3.871-1.359c1.336,0,2.383,0.203,3.148,0.602c0.766,0.402,1.359,0.984,1.785,1.75c0.422,0.766,0.633,1.598,0.633,2.504
	c0,1.453-0.465,2.625-1.395,3.52C391.207,422.966,389.867,423.415,388.113,423.415 M388.113,421.606
	c1.328,0,2.324-0.289,2.984-0.867s0.992-1.309,0.992-2.188c0-0.871-0.332-1.598-0.996-2.176c-0.664-0.582-1.676-0.871-3.035-0.871
	c-1.285,0-2.258,0.293-2.918,0.875s-0.988,1.305-0.988,2.172c0,0.879,0.328,1.609,0.984,2.188S386.785,421.606,388.113,421.606z"/>
<path d="M391.73,407.8l1.551-0.254c0.105,0.496,0.156,0.938,0.156,1.328c0,0.637-0.102,1.133-0.301,1.484
	c-0.203,0.352-0.469,0.598-0.797,0.742s-1.023,0.215-2.078,0.215h-5.965v1.289h-1.367v-1.289h-2.566l-1.055-1.75h3.621V407.8h1.367
	v1.766h6.066c0.5,0,0.82-0.027,0.965-0.09s0.258-0.164,0.344-0.305c0.082-0.141,0.125-0.34,0.125-0.598
	C391.797,408.378,391.773,408.12,391.73,407.8z"/>
<path d="M389.961,398.981l0.227-1.816c1.059,0.285,1.883,0.816,2.469,1.594c0.586,0.773,0.879,1.762,0.879,2.969
	c0,1.516-0.469,2.719-1.402,3.605c-0.934,0.891-2.242,1.332-3.93,1.332c-1.746,0-3.098-0.449-4.063-1.348s-1.445-2.063-1.445-3.496
	c0-1.387,0.473-2.516,1.418-3.398c0.941-0.875,2.27-1.316,3.984-1.316c0.102,0,0.258,0.004,0.469,0.012v7.73
	c1.137-0.063,2.008-0.387,2.617-0.965c0.605-0.578,0.906-1.301,0.906-2.168c0-0.645-0.168-1.195-0.508-1.652
	C391.242,399.61,390.703,399.247,389.961,398.981 M387.121,404.751v-5.789c-0.875,0.078-1.527,0.301-1.965,0.664
	c-0.676,0.559-1.016,1.285-1.016,2.176c0,0.809,0.27,1.488,0.809,2.039C385.492,404.392,386.215,404.692,387.121,404.751z"/>
<path d="M393.301,394.995h-14.316v-1.758h14.316V394.995z"/>
<path d="M393.301,383.716h-1.523c1.172,0.809,1.758,1.906,1.758,3.293c0,0.613-0.117,1.184-0.352,1.715s-0.527,0.922-0.883,1.18
	s-0.789,0.438-1.305,0.543c-0.344,0.07-0.891,0.105-1.641,0.105h-6.426v-1.758h5.754c0.914,0,1.535-0.035,1.852-0.105
	c0.465-0.109,0.828-0.344,1.09-0.703c0.266-0.359,0.398-0.801,0.398-1.328s-0.137-1.023-0.406-1.484s-0.641-0.789-1.105-0.98
	s-1.141-0.289-2.023-0.289h-5.559v-1.758h10.371V383.716z"/>
<path d="M393.301,373.286h-14.316v-1.895l14.316,0.004V373.286z"/>
<path d="M393.301,368.276H382.93v-1.582h1.473c-1.137-0.758-1.707-1.859-1.707-3.301c0-0.625,0.113-1.199,0.336-1.723
	c0.227-0.523,0.52-0.914,0.887-1.176c0.363-0.262,0.797-0.441,1.297-0.547c0.324-0.066,0.895-0.098,1.711-0.098h6.375v1.758h-6.309
	c-0.715,0-1.25,0.066-1.605,0.203s-0.641,0.383-0.852,0.73s-0.316,0.754-0.316,1.223c0,0.75,0.238,1.398,0.715,1.941
	c0.473,0.543,1.375,0.813,2.703,0.813h5.664V368.276z"/>
<path d="M391.73,353.317l1.551-0.254c0.105,0.496,0.156,0.938,0.156,1.328c0,0.637-0.102,1.133-0.301,1.484
	c-0.203,0.352-0.469,0.598-0.797,0.742s-1.023,0.215-2.078,0.215h-5.965v1.289h-1.367v-1.289h-2.566l-1.055-1.75h3.621v-1.766h1.367
	v1.766h6.066c0.5,0,0.82-0.027,0.965-0.09s0.258-0.164,0.344-0.305c0.082-0.141,0.125-0.34,0.125-0.598
	C391.797,353.896,391.773,353.638,391.73,353.317z"/>
<path d="M389.961,344.499l0.227-1.816c1.059,0.285,1.883,0.816,2.469,1.594c0.586,0.773,0.879,1.762,0.879,2.969
	c0,1.516-0.469,2.719-1.402,3.605c-0.934,0.891-2.242,1.332-3.93,1.332c-1.746,0-3.098-0.449-4.063-1.348s-1.445-2.063-1.445-3.496
	c0-1.387,0.473-2.516,1.418-3.398c0.941-0.875,2.27-1.316,3.984-1.316c0.102,0,0.258,0.004,0.469,0.012v7.73
	c1.137-0.063,2.008-0.387,2.617-0.965c0.605-0.578,0.906-1.301,0.906-2.168c0-0.645-0.168-1.195-0.508-1.652
	C391.242,345.128,390.703,344.765,389.961,344.499 M387.121,350.269v-5.789c-0.875,0.078-1.527,0.301-1.965,0.664
	c-0.676,0.559-1.016,1.285-1.016,2.176c0,0.809,0.27,1.488,0.809,2.039C385.492,349.909,386.215,350.21,387.121,350.269z"/>
<path d="M393.301,340.497l-10.371-0.004v-1.582h1.574c-0.738-0.402-1.223-0.773-1.457-1.117c-0.234-0.34-0.352-0.715-0.352-1.129
	c0-0.59,0.188-1.191,0.566-1.805l1.633,0.605c-0.254,0.43-0.383,0.859-0.383,1.289c0,0.383,0.117,0.73,0.348,1.035
	s0.551,0.523,0.961,0.652c0.625,0.195,1.309,0.293,2.051,0.293l5.43,0.004V340.497z"/>
<path d="M389.504,327.048l0.223-1.727c1.191,0.188,2.125,0.672,2.797,1.449c0.676,0.777,1.012,1.73,1.012,2.863
	c0,1.422-0.465,2.563-1.391,3.426c-0.93,0.863-2.258,1.293-3.992,1.293c-1.117,0-2.098-0.188-2.938-0.559s-1.469-0.934-1.891-1.691
	c-0.418-0.758-0.629-1.586-0.629-2.477c0-1.125,0.285-2.047,0.855-2.766c0.57-0.715,1.379-1.172,2.426-1.375l0.266,1.711
	c-0.699,0.16-1.223,0.449-1.574,0.863s-0.527,0.91-0.527,1.496c0,0.887,0.316,1.605,0.953,2.16c0.633,0.555,1.637,0.828,3.012,0.828
	c1.395,0,2.406-0.266,3.039-0.801c0.629-0.531,0.945-1.227,0.945-2.086c0-0.691-0.211-1.27-0.633-1.73
	C391.031,327.466,390.383,327.173,389.504,327.048z"/>
<path d="M388.113,324.47c-1.918,0-3.34-0.535-4.266-1.602c-0.77-0.891-1.152-1.98-1.152-3.262c0-1.426,0.469-2.59,1.402-3.496
	s2.223-1.359,3.871-1.359c1.336,0,2.383,0.203,3.148,0.602c0.766,0.402,1.359,0.984,1.785,1.75c0.422,0.766,0.633,1.598,0.633,2.504
	c0,1.453-0.465,2.625-1.395,3.52C391.207,324.021,389.867,324.47,388.113,324.47 M388.113,322.661c1.328,0,2.324-0.289,2.984-0.867
	s0.992-1.309,0.992-2.188c0-0.871-0.332-1.598-0.996-2.176c-0.664-0.582-1.676-0.871-3.035-0.871c-1.285,0-2.258,0.293-2.918,0.875
	s-0.988,1.305-0.988,2.172c0,0.879,0.328,1.609,0.984,2.188S386.785,322.661,388.113,322.661z"/>
<path d="M393.301,312.69H382.93v-1.582h1.473c-1.137-0.758-1.707-1.859-1.707-3.301c0-0.625,0.113-1.199,0.336-1.723
	c0.227-0.523,0.52-0.914,0.887-1.176c0.363-0.262,0.797-0.441,1.297-0.547c0.324-0.066,0.895-0.098,1.711-0.098h6.375v1.758h-6.309
	c-0.715,0-1.25,0.066-1.605,0.203s-0.641,0.383-0.852,0.73s-0.316,0.754-0.316,1.223c0,0.75,0.238,1.398,0.715,1.941
	c0.473,0.543,1.375,0.813,2.703,0.813h5.664V312.69z"/>
<path d="M391.73,297.731l1.551-0.254c0.105,0.496,0.156,0.938,0.156,1.328c0,0.637-0.102,1.133-0.301,1.484
	c-0.203,0.352-0.469,0.598-0.797,0.742s-1.023,0.215-2.078,0.215h-5.965v1.289h-1.367v-1.289h-2.566l-1.055-1.75h3.621v-1.766h1.367
	v1.766h6.066c0.5,0,0.82-0.027,0.965-0.09s0.258-0.164,0.344-0.305c0.082-0.141,0.125-0.34,0.125-0.598
	C391.797,298.31,391.773,298.052,391.73,297.731z"/>
<path d="M381.004,296.003h-2.02v-1.758h2.02V296.003 M393.301,296.003H382.93v-1.758h10.371V296.003z"/>
<path d="M393.301,291.567H382.93v-1.582h1.473c-1.137-0.758-1.707-1.859-1.707-3.301c0-0.625,0.113-1.199,0.336-1.723
	c0.227-0.523,0.52-0.914,0.887-1.176c0.363-0.262,0.797-0.441,1.297-0.547c0.324-0.066,0.895-0.098,1.711-0.098h6.375v1.758h-6.309
	c-0.715,0-1.25,0.066-1.605,0.203s-0.641,0.383-0.852,0.73s-0.316,0.754-0.316,1.223c0,0.75,0.238,1.398,0.715,1.941
	c0.473,0.543,1.375,0.813,2.703,0.813h5.664V291.567z"/>
<path d="M389.961,273.347l0.227-1.816c1.059,0.285,1.883,0.816,2.469,1.594c0.586,0.773,0.879,1.762,0.879,2.969
	c0,1.516-0.469,2.719-1.402,3.605c-0.934,0.891-2.242,1.332-3.93,1.332c-1.746,0-3.098-0.449-4.063-1.348s-1.445-2.063-1.445-3.496
	c0-1.387,0.473-2.516,1.418-3.398c0.941-0.875,2.27-1.316,3.984-1.316c0.102,0,0.258,0.004,0.469,0.012v7.73
	c1.137-0.063,2.008-0.387,2.617-0.965c0.605-0.578,0.906-1.301,0.906-2.168c0-0.645-0.168-1.195-0.508-1.652
	C391.242,273.976,390.703,273.612,389.961,273.347 M387.121,279.116v-5.789c-0.875,0.078-1.527,0.301-1.965,0.664
	c-0.676,0.559-1.016,1.285-1.016,2.176c0,0.809,0.27,1.488,0.809,2.039C385.492,278.757,386.215,279.058,387.121,279.116z"/>
<path d="M393.301,269.321H382.93v-1.582h1.473c-1.137-0.758-1.707-1.859-1.707-3.301c0-0.625,0.113-1.199,0.336-1.723
	c0.227-0.523,0.52-0.914,0.887-1.176c0.363-0.262,0.797-0.441,1.297-0.547c0.324-0.066,0.895-0.098,1.711-0.098h6.375v1.758h-6.309
	c-0.715,0-1.25,0.066-1.605,0.203s-0.641,0.383-0.852,0.73s-0.316,0.754-0.316,1.223c0,0.75,0.238,1.398,0.715,1.941
	c0.473,0.543,1.375,0.813,2.703,0.813h5.664V269.321z"/>
<path d="M391.73,254.362l1.551-0.254c0.105,0.496,0.156,0.938,0.156,1.328c0,0.637-0.102,1.133-0.301,1.484
	c-0.203,0.352-0.469,0.598-0.797,0.742s-1.023,0.215-2.078,0.215h-5.965v1.289h-1.367v-1.289h-2.566l-1.055-1.75h3.621v-1.766h1.367
	v1.766h6.066c0.5,0,0.82-0.027,0.965-0.09s0.258-0.164,0.344-0.305c0.082-0.141,0.125-0.34,0.125-0.598
	C391.797,254.94,391.773,254.683,391.73,254.362z"/>
<path d="M392.023,245.876c0.551,0.652,0.941,1.277,1.172,1.879c0.227,0.602,0.34,1.25,0.34,1.941c0,1.137-0.277,2.012-0.836,2.625
	c-0.555,0.613-1.266,0.918-2.133,0.918c-0.508,0-0.973-0.117-1.391-0.348c-0.422-0.23-0.758-0.531-1.012-0.906
	s-0.445-0.797-0.574-1.266c-0.094-0.344-0.18-0.867-0.266-1.563c-0.168-1.418-0.371-2.465-0.605-3.133
	c-0.242-0.008-0.395-0.012-0.457-0.012c-0.719,0-1.223,0.164-1.516,0.496c-0.398,0.449-0.594,1.117-0.594,2.004
	c0,0.828,0.145,1.438,0.434,1.832s0.801,0.684,1.535,0.871l-0.234,1.719c-0.734-0.152-1.328-0.41-1.781-0.77
	s-0.801-0.875-1.043-1.555c-0.246-0.676-0.367-1.461-0.367-2.352c0-0.887,0.105-1.605,0.313-2.16
	c0.207-0.551,0.469-0.957,0.785-1.219s0.715-0.441,1.195-0.547c0.301-0.059,0.844-0.09,1.625-0.09h2.344
	c1.633,0,2.664-0.035,3.098-0.109s0.848-0.223,1.246-0.445v1.836C392.938,245.708,392.512,245.825,392.023,245.876 M388.098,246.024
	c0.258,0.637,0.48,1.594,0.664,2.867c0.102,0.727,0.219,1.234,0.352,1.535c0.129,0.301,0.32,0.531,0.57,0.691
	c0.25,0.164,0.527,0.246,0.836,0.246c0.469,0,0.859-0.176,1.172-0.531s0.469-0.875,0.469-1.559c0-0.676-0.148-1.281-0.445-1.805
	c-0.297-0.531-0.703-0.918-1.215-1.164c-0.398-0.188-0.984-0.281-1.758-0.281H388.098z"/>
<path d="M393.301,241.558h-14.316V239.8h14.316V241.558z"/>
<path fill="none" stroke="#000000" stroke-width="0.75" stroke-linecap="round" stroke-linejoin="round" stroke-miterlimit="10" d="
	M559.555,238.079h-57.777"/>
<path fill="none" stroke="#000000" stroke-width="0.75" stroke-linecap="round" stroke-linejoin="round" stroke-miterlimit="10" d="
	M501.777,238.079L501.777,238.079"/>
<path fill="none" stroke="#000000" stroke-width="0.75" stroke-linecap="round" stroke-linejoin="round" stroke-miterlimit="10" d="
	M559.555,238.079h57.777"/>
<path fill="none" stroke="#000000" stroke-width="0.75" stroke-linecap="round" stroke-linejoin="round" stroke-miterlimit="10" d="
	M617.332,238.079L617.332,238.079"/>
<path fill="#FF0000" d="M508.859,362.517h-14.316v-4.934c0-1.109,0.066-1.961,0.207-2.547c0.188-0.82,0.527-1.52,1.023-2.102
	c0.637-0.754,1.453-1.316,2.445-1.691s2.129-0.563,3.406-0.563c1.086,0,2.051,0.129,2.891,0.379c0.84,0.258,1.531,0.582,2.082,0.977
	c0.551,0.398,0.984,0.832,1.301,1.305s0.555,1.043,0.719,1.711c0.16,0.668,0.242,1.434,0.242,2.297V362.517 M507.172,360.622v-3.055
	c0-0.945-0.09-1.688-0.266-2.223c-0.176-0.539-0.422-0.965-0.742-1.285c-0.449-0.449-1.055-0.801-1.813-1.051
	s-1.676-0.375-2.758-0.375c-1.496,0-2.648,0.246-3.453,0.738s-1.344,1.086-1.617,1.789c-0.195,0.508-0.289,1.328-0.289,2.453v3.008
	H507.172z"/>
<path fill="#FF0000" d="M508.859,348.319l-10.371-0.004v-1.582h1.574c-0.738-0.402-1.223-0.773-1.457-1.117
	c-0.234-0.34-0.352-0.715-0.352-1.129c0-0.59,0.188-1.191,0.566-1.805l1.633,0.605c-0.254,0.43-0.383,0.859-0.383,1.289
	c0,0.383,0.117,0.73,0.348,1.035s0.551,0.523,0.961,0.652c0.625,0.195,1.309,0.293,2.051,0.293l5.43,0.004V348.319z"/>
<path fill="#FF0000" d="M508.859,334.839h-1.523c1.172,0.809,1.758,1.906,1.758,3.293c0,0.613-0.117,1.184-0.352,1.715
	s-0.527,0.922-0.883,1.18s-0.789,0.438-1.305,0.543c-0.344,0.07-0.891,0.105-1.641,0.105h-6.426v-1.758h5.754
	c0.914,0,1.535-0.035,1.852-0.105c0.465-0.109,0.828-0.344,1.09-0.703c0.266-0.359,0.398-0.801,0.398-1.328
	s-0.137-1.023-0.406-1.484s-0.641-0.789-1.105-0.98s-1.141-0.289-2.023-0.289h-5.559v-1.758h10.371V334.839z"/>
<path fill="#FF0000" d="M508.859,330.513h-14.316v-1.758h5.137c-0.949-0.816-1.426-1.852-1.426-3.105c0-0.766,0.152-1.434,0.453-2
	c0.305-0.566,0.723-0.973,1.254-1.215c0.535-0.246,1.313-0.367,2.328-0.367h6.57v1.758h-6.57c-0.879,0-1.52,0.191-1.922,0.57
	c-0.398,0.383-0.602,0.922-0.602,1.617c0,0.52,0.137,1.012,0.406,1.469c0.27,0.461,0.637,0.785,1.102,0.98
	c0.461,0.195,1.098,0.293,1.914,0.293h5.672V330.513z"/>
<path fill="#FF0000" d="M505.52,312.292l0.227-1.816c1.059,0.285,1.883,0.816,2.469,1.594c0.586,0.773,0.879,1.762,0.879,2.969
	c0,1.516-0.469,2.719-1.402,3.605c-0.934,0.891-2.242,1.332-3.93,1.332c-1.746,0-3.098-0.449-4.063-1.348s-1.445-2.063-1.445-3.496
	c0-1.387,0.473-2.516,1.418-3.398c0.941-0.875,2.27-1.316,3.984-1.316c0.102,0,0.258,0.004,0.469,0.012v7.73
	c1.137-0.063,2.008-0.387,2.617-0.965c0.605-0.578,0.906-1.301,0.906-2.168c0-0.645-0.168-1.195-0.508-1.652
	C506.801,312.921,506.262,312.558,505.52,312.292 M502.68,318.062v-5.789c-0.875,0.078-1.527,0.301-1.965,0.664
	c-0.676,0.559-1.016,1.285-1.016,2.176c0,0.809,0.27,1.488,0.809,2.039C501.051,317.702,501.773,318.003,502.68,318.062
	 M497.199,316.167l-2.734-1.297v-2.305l2.734,2.148V316.167z"/>
<path fill="#FF0000" d="M508.859,302.71h-10.371v-1.57h1.457c-0.508-0.324-0.918-0.758-1.227-1.301
	c-0.309-0.539-0.465-1.152-0.465-1.844c0-0.77,0.16-1.398,0.48-1.891c0.316-0.492,0.762-0.836,1.336-1.039
	c-1.211-0.82-1.816-1.887-1.816-3.203c0-1.027,0.285-1.82,0.855-2.371c0.57-0.555,1.445-0.832,2.633-0.832h7.117v1.746h-6.531
	c-0.703,0-1.211,0.059-1.52,0.172s-0.559,0.32-0.746,0.621c-0.191,0.301-0.285,0.652-0.285,1.055c0,0.73,0.242,1.336,0.727,1.816
	s1.262,0.723,2.332,0.723h6.023v1.758h-6.738c-0.781,0-1.367,0.145-1.758,0.43s-0.586,0.754-0.586,1.406
	c0,0.496,0.129,0.953,0.391,1.371c0.262,0.422,0.641,0.727,1.145,0.914c0.5,0.188,1.223,0.281,2.164,0.281h5.383V302.71z"/>
<path fill="#FF0000" d="M505.52,278.952l0.227-1.816c1.059,0.285,1.883,0.816,2.469,1.594c0.586,0.773,0.879,1.762,0.879,2.969
	c0,1.516-0.469,2.719-1.402,3.605c-0.934,0.891-2.242,1.332-3.93,1.332c-1.746,0-3.098-0.449-4.063-1.348s-1.445-2.063-1.445-3.496
	c0-1.387,0.473-2.516,1.418-3.398c0.941-0.875,2.27-1.316,3.984-1.316c0.102,0,0.258,0.004,0.469,0.012v7.73
	c1.137-0.063,2.008-0.387,2.617-0.965c0.605-0.578,0.906-1.301,0.906-2.168c0-0.645-0.168-1.195-0.508-1.652
	C506.801,279.581,506.262,279.218,505.52,278.952 M502.68,284.722v-5.789c-0.875,0.078-1.527,0.301-1.965,0.664
	c-0.676,0.559-1.016,1.285-1.016,2.176c0,0.809,0.27,1.488,0.809,2.039C501.051,284.362,501.773,284.663,502.68,284.722
	 M496.125,281.675l-1.66-1.074v-1.988l2.734,2.195v1.875l-2.734,2.109v-2.012L496.125,281.675z"/>
<path fill="#FF0000" d="M505.766,275.63l-0.273-1.734c0.695-0.102,1.227-0.371,1.602-0.816c0.371-0.445,0.555-1.07,0.555-1.871
	c0-0.809-0.164-1.406-0.492-1.797s-0.715-0.586-1.156-0.586c-0.398,0-0.711,0.172-0.938,0.516c-0.156,0.242-0.355,0.844-0.598,1.797
	c-0.324,1.289-0.605,2.184-0.844,2.684c-0.238,0.496-0.566,0.875-0.988,1.133c-0.418,0.258-0.883,0.383-1.391,0.383
	c-0.461,0-0.891-0.105-1.285-0.316s-0.719-0.5-0.98-0.863c-0.203-0.273-0.371-0.645-0.512-1.117s-0.211-0.98-0.211-1.52
	c0-0.813,0.117-1.527,0.352-2.145c0.234-0.613,0.551-1.066,0.953-1.363c0.398-0.289,0.934-0.492,1.605-0.602l0.234,1.715
	c-0.535,0.078-0.949,0.305-1.25,0.68s-0.449,0.902-0.449,1.586c0,0.809,0.133,1.387,0.402,1.73c0.266,0.344,0.578,0.516,0.938,0.516
	c0.227,0,0.43-0.07,0.613-0.215c0.188-0.141,0.344-0.367,0.469-0.672c0.066-0.176,0.215-0.691,0.449-1.551
	c0.332-1.246,0.605-2.113,0.816-2.605s0.52-0.875,0.922-1.156s0.906-0.418,1.504-0.418c0.586,0,1.137,0.168,1.656,0.512
	c0.516,0.34,0.918,0.836,1.199,1.48c0.285,0.641,0.426,1.371,0.426,2.188c0,1.344-0.281,2.371-0.84,3.078
	S506.863,275.435,505.766,275.63z"/>
<path fill="#FF0000" d="M507.289,261.091l1.551-0.254c0.105,0.496,0.156,0.938,0.156,1.328c0,0.637-0.102,1.133-0.301,1.484
	c-0.203,0.352-0.469,0.598-0.797,0.742s-1.023,0.215-2.078,0.215h-5.965v1.289h-1.367v-1.289h-2.566l-1.055-1.75h3.621v-1.766h1.367
	v1.766h6.066c0.5,0,0.82-0.027,0.965-0.09s0.258-0.164,0.344-0.305c0.082-0.141,0.125-0.34,0.125-0.598
	C507.355,261.669,507.332,261.411,507.289,261.091z"/>
<path fill="#FF0000" d="M503.672,260.026c-1.918,0-3.34-0.535-4.266-1.602c-0.77-0.891-1.152-1.98-1.152-3.262
	c0-1.426,0.469-2.59,1.402-3.496s2.223-1.359,3.871-1.359c1.336,0,2.383,0.203,3.148,0.602c0.766,0.402,1.359,0.984,1.785,1.75
	c0.422,0.766,0.633,1.598,0.633,2.504c0,1.453-0.465,2.625-1.395,3.52C506.766,259.577,505.426,260.026,503.672,260.026
	 M503.672,258.218c1.328,0,2.324-0.289,2.984-0.867s0.992-1.309,0.992-2.188c0-0.871-0.332-1.598-0.996-2.176
	c-0.664-0.582-1.676-0.871-3.035-0.871c-1.285,0-2.258,0.293-2.918,0.875s-0.988,1.305-0.988,2.172c0,0.879,0.328,1.609,0.984,2.188
	S502.344,258.218,503.672,258.218z"/>
<path fill="#0000FF" d="M624.414,445.927h-14.316v-1.945l11.242-7.516h-11.242v-1.82h14.316v1.945l-11.25,7.52h11.25V445.927z"/>
<path fill="#0000FF" d="M623.137,424.921c0.551,0.652,0.941,1.277,1.172,1.879c0.227,0.602,0.34,1.25,0.34,1.941
	c0,1.137-0.277,2.012-0.836,2.625c-0.555,0.613-1.266,0.918-2.133,0.918c-0.508,0-0.973-0.117-1.391-0.348
	c-0.422-0.23-0.758-0.531-1.012-0.906s-0.445-0.797-0.574-1.266c-0.094-0.344-0.18-0.867-0.266-1.563
	c-0.168-1.418-0.371-2.465-0.605-3.133c-0.242-0.008-0.395-0.012-0.457-0.012c-0.719,0-1.223,0.164-1.516,0.496
	c-0.398,0.449-0.594,1.117-0.594,2.004c0,0.828,0.145,1.438,0.434,1.832s0.801,0.684,1.535,0.871L617,431.979
	c-0.734-0.152-1.328-0.41-1.781-0.77s-0.801-0.875-1.043-1.555c-0.246-0.676-0.367-1.461-0.367-2.352
	c0-0.887,0.105-1.605,0.313-2.16c0.207-0.551,0.469-0.957,0.785-1.219s0.715-0.441,1.195-0.547c0.301-0.059,0.844-0.09,1.625-0.09
	h2.344c1.633,0,2.664-0.035,3.098-0.109s0.848-0.223,1.246-0.445v1.836C624.051,424.753,623.625,424.87,623.137,424.921
	 M619.211,425.069c0.258,0.637,0.48,1.594,0.664,2.867c0.102,0.727,0.219,1.234,0.352,1.535c0.129,0.301,0.32,0.531,0.57,0.691
	c0.25,0.164,0.527,0.246,0.836,0.246c0.469,0,0.859-0.176,1.172-0.531s0.469-0.875,0.469-1.559c0-0.676-0.148-1.281-0.445-1.805
	c-0.297-0.531-0.703-0.918-1.215-1.164c-0.398-0.188-0.984-0.281-1.758-0.281H619.211 M612.754,428.483l-2.734-1.297v-2.305
	l2.734,2.148V428.483z"/>
<path fill="#0000FF" d="M624.414,417.685l-10.371,3.945v-1.855l6.211-2.227c0.672-0.242,1.367-0.461,2.09-0.664
	c-0.547-0.156-1.203-0.375-1.973-0.656l-6.328-2.305v-1.805l10.371,3.926V417.685z"/>
<path fill="#0000FF" d="M624.414,410.587l-10.371-0.004v-1.582h1.574c-0.738-0.402-1.223-0.773-1.457-1.117
	c-0.234-0.34-0.352-0.715-0.352-1.129c0-0.59,0.188-1.191,0.566-1.805l1.633,0.605c-0.254,0.43-0.383,0.859-0.383,1.289
	c0,0.383,0.117,0.73,0.348,1.035s0.551,0.523,0.961,0.652c0.625,0.195,1.309,0.293,2.051,0.293l5.43,0.004V410.587z"/>
<path fill="#0000FF" d="M623.137,397.138c0.551,0.652,0.941,1.277,1.172,1.879c0.227,0.602,0.34,1.25,0.34,1.941
	c0,1.137-0.277,2.012-0.836,2.625c-0.555,0.613-1.266,0.918-2.133,0.918c-0.508,0-0.973-0.117-1.391-0.348
	c-0.422-0.23-0.758-0.531-1.012-0.906s-0.445-0.797-0.574-1.266c-0.094-0.344-0.18-0.867-0.266-1.563
	c-0.168-1.418-0.371-2.465-0.605-3.133c-0.242-0.008-0.395-0.012-0.457-0.012c-0.719,0-1.223,0.164-1.516,0.496
	c-0.398,0.449-0.594,1.117-0.594,2.004c0,0.828,0.145,1.438,0.434,1.832s0.801,0.684,1.535,0.871L617,404.196
	c-0.734-0.152-1.328-0.41-1.781-0.77s-0.801-0.875-1.043-1.555c-0.246-0.676-0.367-1.461-0.367-2.352
	c0-0.887,0.105-1.605,0.313-2.16c0.207-0.551,0.469-0.957,0.785-1.219s0.715-0.441,1.195-0.547c0.301-0.059,0.844-0.09,1.625-0.09
	h2.344c1.633,0,2.664-0.035,3.098-0.109s0.848-0.223,1.246-0.445v1.836C624.051,396.97,623.625,397.087,623.137,397.138
	 M619.211,397.286c0.258,0.637,0.48,1.594,0.664,2.867c0.102,0.727,0.219,1.234,0.352,1.535c0.129,0.301,0.32,0.531,0.57,0.691
	c0.25,0.164,0.527,0.246,0.836,0.246c0.469,0,0.859-0.176,1.172-0.531s0.469-0.875,0.469-1.559c0-0.676-0.148-1.281-0.445-1.805
	c-0.297-0.531-0.703-0.918-1.215-1.164c-0.398-0.188-0.984-0.281-1.758-0.281H619.211z"/>
<path fill="#0000FF" d="M622.844,388.944l1.551-0.254c0.105,0.496,0.156,0.938,0.156,1.328c0,0.637-0.102,1.133-0.301,1.484
	c-0.203,0.352-0.469,0.598-0.797,0.742s-1.023,0.215-2.078,0.215h-5.965v1.289h-1.367v-1.289h-2.566l-1.055-1.75h3.621v-1.766h1.367
	v1.766h6.066c0.5,0,0.82-0.027,0.965-0.09s0.258-0.164,0.344-0.305c0.082-0.141,0.125-0.34,0.125-0.598
	C622.91,389.522,622.887,389.265,622.844,388.944z"/>
<path fill="#0000FF" d="M621.32,382.37l-0.273-1.734c0.695-0.102,1.227-0.371,1.602-0.816c0.371-0.445,0.555-1.07,0.555-1.871
	c0-0.809-0.164-1.406-0.492-1.797s-0.715-0.586-1.156-0.586c-0.398,0-0.711,0.172-0.938,0.516c-0.156,0.242-0.355,0.844-0.598,1.797
	c-0.324,1.289-0.605,2.184-0.844,2.684c-0.238,0.496-0.566,0.875-0.988,1.133c-0.418,0.258-0.883,0.383-1.391,0.383
	c-0.461,0-0.891-0.105-1.285-0.316s-0.719-0.5-0.98-0.863c-0.203-0.273-0.371-0.645-0.512-1.117s-0.211-0.98-0.211-1.52
	c0-0.813,0.117-1.527,0.352-2.145c0.234-0.613,0.551-1.066,0.953-1.363c0.398-0.289,0.934-0.492,1.605-0.602l0.234,1.715
	c-0.535,0.078-0.949,0.305-1.25,0.68s-0.449,0.902-0.449,1.586c0,0.809,0.133,1.387,0.402,1.73c0.266,0.344,0.578,0.516,0.938,0.516
	c0.227,0,0.43-0.07,0.613-0.215c0.188-0.141,0.344-0.367,0.469-0.672c0.066-0.176,0.215-0.691,0.449-1.551
	c0.332-1.246,0.605-2.113,0.816-2.605s0.52-0.875,0.922-1.156s0.906-0.418,1.504-0.418c0.586,0,1.137,0.168,1.656,0.512
	c0.516,0.34,0.918,0.836,1.199,1.48c0.285,0.641,0.426,1.371,0.426,2.188c0,1.344-0.281,2.371-0.84,3.078
	S622.418,382.175,621.32,382.37z"/>
<path fill="#0000FF" d="M622.844,367.831l1.551-0.254c0.105,0.496,0.156,0.938,0.156,1.328c0,0.637-0.102,1.133-0.301,1.484
	c-0.203,0.352-0.469,0.598-0.797,0.742s-1.023,0.215-2.078,0.215h-5.965v1.289h-1.367v-1.289h-2.566l-1.055-1.75h3.621v-1.766h1.367
	v1.766h6.066c0.5,0,0.82-0.027,0.965-0.09s0.258-0.164,0.344-0.305c0.082-0.141,0.125-0.34,0.125-0.598
	C622.91,368.409,622.887,368.151,622.844,367.831z"/>
<path fill="#0000FF" d="M623.137,359.345c0.551,0.652,0.941,1.277,1.172,1.879c0.227,0.602,0.34,1.25,0.34,1.941
	c0,1.137-0.277,2.012-0.836,2.625c-0.555,0.613-1.266,0.918-2.133,0.918c-0.508,0-0.973-0.117-1.391-0.348
	c-0.422-0.23-0.758-0.531-1.012-0.906s-0.445-0.797-0.574-1.266c-0.094-0.344-0.18-0.867-0.266-1.563
	c-0.168-1.418-0.371-2.465-0.605-3.133c-0.242-0.008-0.395-0.012-0.457-0.012c-0.719,0-1.223,0.164-1.516,0.496
	c-0.398,0.449-0.594,1.117-0.594,2.004c0,0.828,0.145,1.438,0.434,1.832s0.801,0.684,1.535,0.871L617,366.403
	c-0.734-0.152-1.328-0.41-1.781-0.77s-0.801-0.875-1.043-1.555c-0.246-0.676-0.367-1.461-0.367-2.352
	c0-0.887,0.105-1.605,0.313-2.16c0.207-0.551,0.469-0.957,0.785-1.219s0.715-0.441,1.195-0.547c0.301-0.059,0.844-0.09,1.625-0.09
	h2.344c1.633,0,2.664-0.035,3.098-0.109s0.848-0.223,1.246-0.445v1.836C624.051,359.177,623.625,359.294,623.137,359.345
	 M619.211,359.493c0.258,0.637,0.48,1.594,0.664,2.867c0.102,0.727,0.219,1.234,0.352,1.535c0.129,0.301,0.32,0.531,0.57,0.691
	c0.25,0.164,0.527,0.246,0.836,0.246c0.469,0,0.859-0.176,1.172-0.531s0.469-0.875,0.469-1.559c0-0.676-0.148-1.281-0.445-1.805
	c-0.297-0.531-0.703-0.918-1.215-1.164c-0.398-0.188-0.984-0.281-1.758-0.281H619.211z"/>
<path fill="#0000FF" d="M624.414,355.011l-10.371-0.004v-1.582h1.574c-0.738-0.402-1.223-0.773-1.457-1.117
	c-0.234-0.34-0.352-0.715-0.352-1.129c0-0.59,0.188-1.191,0.566-1.805l1.633,0.605c-0.254,0.43-0.383,0.859-0.383,1.289
	c0,0.383,0.117,0.73,0.348,1.035s0.551,0.523,0.961,0.652c0.625,0.195,1.309,0.293,2.051,0.293l5.43,0.004V355.011z"/>
<path fill="#0000FF" d="M621.074,341.229l0.227-1.816c1.059,0.285,1.883,0.816,2.469,1.594c0.586,0.773,0.879,1.762,0.879,2.969
	c0,1.516-0.469,2.719-1.402,3.605c-0.934,0.891-2.242,1.332-3.93,1.332c-1.746,0-3.098-0.449-4.063-1.348s-1.445-2.063-1.445-3.496
	c0-1.387,0.473-2.516,1.418-3.398c0.941-0.875,2.27-1.316,3.984-1.316c0.102,0,0.258,0.004,0.469,0.012v7.73
	c1.137-0.063,2.008-0.387,2.617-0.965c0.605-0.578,0.906-1.301,0.906-2.168c0-0.645-0.168-1.195-0.508-1.652
	C622.355,341.858,621.816,341.495,621.074,341.229 M618.234,346.999v-5.789c-0.875,0.078-1.527,0.301-1.965,0.664
	c-0.676,0.559-1.016,1.285-1.016,2.176c0,0.809,0.27,1.488,0.809,2.039C616.605,346.64,617.328,346.94,618.234,346.999
	 M612.754,345.104l-2.734-1.297v-2.305l2.734,2.148V345.104z"/>
<path fill="#0000FF" d="M624.414,337.204h-14.316v-1.758h5.137c-0.949-0.816-1.426-1.852-1.426-3.105c0-0.766,0.152-1.434,0.453-2
	c0.305-0.566,0.723-0.973,1.254-1.215c0.535-0.246,1.313-0.367,2.328-0.367h6.57v1.758h-6.57c-0.879,0-1.52,0.191-1.922,0.57
	c-0.398,0.383-0.602,0.922-0.602,1.617c0,0.52,0.137,1.012,0.406,1.469c0.27,0.461,0.637,0.785,1.102,0.98
	c0.461,0.195,1.098,0.293,1.914,0.293h5.672V337.204z"/>
<path fill="#0000FF" d="M619.227,326.737c-1.918,0-3.34-0.535-4.266-1.602c-0.77-0.891-1.152-1.98-1.152-3.262
	c0-1.426,0.469-2.59,1.402-3.496s2.223-1.359,3.871-1.359c1.336,0,2.383,0.203,3.148,0.602c0.766,0.402,1.359,0.984,1.785,1.75
	c0.422,0.766,0.633,1.598,0.633,2.504c0,1.453-0.465,2.625-1.395,3.52C622.32,326.288,620.98,326.737,619.227,326.737
	 M619.227,324.929c1.328,0,2.324-0.289,2.984-0.867s0.992-1.309,0.992-2.188c0-0.871-0.332-1.598-0.996-2.176
	c-0.664-0.582-1.676-0.871-3.035-0.871c-1.285,0-2.258,0.293-2.918,0.875s-0.988,1.305-0.988,2.172c0,0.879,0.328,1.609,0.984,2.188
	S617.898,324.929,619.227,324.929z"/>
<path fill="#0000FF" d="M624.414,306.522l-10.371,3.945v-1.855l6.211-2.227c0.672-0.242,1.367-0.461,2.09-0.664
	c-0.547-0.156-1.203-0.375-1.973-0.656l-6.328-2.305v-1.805l10.371,3.926V306.522z"/>
<path fill="#0000FF" d="M623.137,292.636c0.551,0.652,0.941,1.277,1.172,1.879c0.227,0.602,0.34,1.25,0.34,1.941
	c0,1.137-0.277,2.012-0.836,2.625c-0.555,0.613-1.266,0.918-2.133,0.918c-0.508,0-0.973-0.117-1.391-0.348
	c-0.422-0.23-0.758-0.531-1.012-0.906s-0.445-0.797-0.574-1.266c-0.094-0.344-0.18-0.867-0.266-1.563
	c-0.168-1.418-0.371-2.465-0.605-3.133c-0.242-0.008-0.395-0.012-0.457-0.012c-0.719,0-1.223,0.164-1.516,0.496
	c-0.398,0.449-0.594,1.117-0.594,2.004c0,0.828,0.145,1.438,0.434,1.832s0.801,0.684,1.535,0.871L617,299.694
	c-0.734-0.152-1.328-0.41-1.781-0.77s-0.801-0.875-1.043-1.555c-0.246-0.676-0.367-1.461-0.367-2.352
	c0-0.887,0.105-1.605,0.313-2.16c0.207-0.551,0.469-0.957,0.785-1.219s0.715-0.441,1.195-0.547c0.301-0.059,0.844-0.09,1.625-0.09
	h2.344c1.633,0,2.664-0.035,3.098-0.109s0.848-0.223,1.246-0.445v1.836C624.051,292.468,623.625,292.585,623.137,292.636
	 M619.211,292.784c0.258,0.637,0.48,1.594,0.664,2.867c0.102,0.727,0.219,1.234,0.352,1.535c0.129,0.301,0.32,0.531,0.57,0.691
	c0.25,0.164,0.527,0.246,0.836,0.246c0.469,0,0.859-0.176,1.172-0.531s0.469-0.875,0.469-1.559c0-0.676-0.148-1.281-0.445-1.805
	c-0.297-0.531-0.703-0.918-1.215-1.164c-0.398-0.188-0.984-0.281-1.758-0.281H619.211z"/>
<path fill="#0000FF" d="M624.414,288.302l-10.371-0.004v-1.582h1.574c-0.738-0.402-1.223-0.773-1.457-1.117
	c-0.234-0.34-0.352-0.715-0.352-1.129c0-0.59,0.188-1.191,0.566-1.805l1.633,0.605c-0.254,0.43-0.383,0.859-0.383,1.289
	c0,0.383,0.117,0.73,0.348,1.035s0.551,0.523,0.961,0.652c0.625,0.195,1.309,0.293,2.051,0.293l5.43,0.004V288.302z"/>
<path fill="#0000FF" d="M623.137,274.853c0.551,0.652,0.941,1.277,1.172,1.879c0.227,0.602,0.34,1.25,0.34,1.941
	c0,1.137-0.277,2.012-0.836,2.625c-0.555,0.613-1.266,0.918-2.133,0.918c-0.508,0-0.973-0.117-1.391-0.348
	c-0.422-0.23-0.758-0.531-1.012-0.906s-0.445-0.797-0.574-1.266c-0.094-0.344-0.18-0.867-0.266-1.563
	c-0.168-1.418-0.371-2.465-0.605-3.133c-0.242-0.008-0.395-0.012-0.457-0.012c-0.719,0-1.223,0.164-1.516,0.496
	c-0.398,0.449-0.594,1.117-0.594,2.004c0,0.828,0.145,1.438,0.434,1.832s0.801,0.684,1.535,0.871L617,281.911
	c-0.734-0.152-1.328-0.41-1.781-0.77s-0.801-0.875-1.043-1.555c-0.246-0.676-0.367-1.461-0.367-2.352
	c0-0.887,0.105-1.605,0.313-2.16c0.207-0.551,0.469-0.957,0.785-1.219s0.715-0.441,1.195-0.547c0.301-0.059,0.844-0.09,1.625-0.09
	h2.344c1.633,0,2.664-0.035,3.098-0.109s0.848-0.223,1.246-0.445v1.836C624.051,274.685,623.625,274.802,623.137,274.853
	 M619.211,275.001c0.258,0.637,0.48,1.594,0.664,2.867c0.102,0.727,0.219,1.234,0.352,1.535c0.129,0.301,0.32,0.531,0.57,0.691
	c0.25,0.164,0.527,0.246,0.836,0.246c0.469,0,0.859-0.176,1.172-0.531s0.469-0.875,0.469-1.559c0-0.676-0.148-1.281-0.445-1.805
	c-0.297-0.531-0.703-0.918-1.215-1.164c-0.398-0.188-0.984-0.281-1.758-0.281H619.211z"/>
<path fill="#0000FF" d="M624.414,270.495h-10.371v-1.582h1.473c-1.137-0.758-1.707-1.859-1.707-3.301
	c0-0.625,0.113-1.199,0.336-1.723c0.227-0.523,0.52-0.914,0.887-1.176c0.363-0.262,0.797-0.441,1.297-0.547
	c0.324-0.066,0.895-0.098,1.711-0.098h6.375v1.758h-6.309c-0.715,0-1.25,0.066-1.605,0.203s-0.641,0.383-0.852,0.73
	s-0.316,0.754-0.316,1.223c0,0.75,0.238,1.398,0.715,1.941c0.473,0.543,1.375,0.813,2.703,0.813h5.664V270.495z"/>
<path fill="#0000FF" d="M623.137,252.606c0.551,0.652,0.941,1.277,1.172,1.879c0.227,0.602,0.34,1.25,0.34,1.941
	c0,1.137-0.277,2.012-0.836,2.625c-0.555,0.613-1.266,0.918-2.133,0.918c-0.508,0-0.973-0.117-1.391-0.348
	c-0.422-0.23-0.758-0.531-1.012-0.906s-0.445-0.797-0.574-1.266c-0.094-0.344-0.18-0.867-0.266-1.563
	c-0.168-1.418-0.371-2.465-0.605-3.133c-0.242-0.008-0.395-0.012-0.457-0.012c-0.719,0-1.223,0.164-1.516,0.496
	c-0.398,0.449-0.594,1.117-0.594,2.004c0,0.828,0.145,1.438,0.434,1.832s0.801,0.684,1.535,0.871L617,259.665
	c-0.734-0.152-1.328-0.41-1.781-0.77s-0.801-0.875-1.043-1.555c-0.246-0.676-0.367-1.461-0.367-2.352
	c0-0.887,0.105-1.605,0.313-2.16c0.207-0.551,0.469-0.957,0.785-1.219s0.715-0.441,1.195-0.547c0.301-0.059,0.844-0.09,1.625-0.09
	h2.344c1.633,0,2.664-0.035,3.098-0.109s0.848-0.223,1.246-0.445v1.836C624.051,252.438,623.625,252.556,623.137,252.606
	 M619.211,252.755c0.258,0.637,0.48,1.594,0.664,2.867c0.102,0.727,0.219,1.234,0.352,1.535c0.129,0.301,0.32,0.531,0.57,0.691
	c0.25,0.164,0.527,0.246,0.836,0.246c0.469,0,0.859-0.176,1.172-0.531s0.469-0.875,0.469-1.559c0-0.676-0.148-1.281-0.445-1.805
	c-0.297-0.531-0.703-0.918-1.215-1.164c-0.398-0.188-0.984-0.281-1.758-0.281H619.211z"/>
<path d="M332.047,525.599h-1.758v-11.203c-0.426,0.406-0.98,0.809-1.668,1.211c-0.688,0.406-1.301,0.707-1.848,0.91v-1.699
	c0.98-0.461,1.84-1.023,2.578-1.68c0.734-0.656,1.254-1.297,1.563-1.914h1.133V525.599z"/>
<path d="M336.545,518.536c0-1.691,0.176-3.055,0.523-4.086s0.867-1.828,1.555-2.387s1.551-0.84,2.594-0.84
	c0.766,0,1.441,0.156,2.02,0.465s1.059,0.754,1.434,1.336c0.379,0.582,0.676,1.293,0.891,2.129s0.32,1.965,0.32,3.383
	c0,1.68-0.172,3.039-0.516,4.07s-0.859,1.828-1.547,2.391s-1.555,0.844-2.602,0.844c-1.383,0-2.465-0.492-3.254-1.484
	C337.018,523.169,336.545,521.228,336.545,518.536 M338.354,518.536c0,2.352,0.273,3.918,0.824,4.695s1.23,1.168,2.039,1.164
	c0.805,0.004,1.484-0.391,2.035-1.172s0.824-2.344,0.824-4.688c0-2.355-0.273-3.922-0.824-4.695s-1.238-1.164-2.059-1.164
	c-0.805,0-1.449,0.344-1.93,1.027C338.654,514.575,338.354,516.188,338.354,518.536z"/>
<path d="M347.668,518.536c0-1.691,0.176-3.055,0.523-4.086s0.867-1.828,1.555-2.387s1.551-0.84,2.594-0.84
	c0.766,0,1.441,0.156,2.02,0.465s1.059,0.754,1.434,1.336c0.379,0.582,0.676,1.293,0.891,2.129s0.32,1.965,0.32,3.383
	c0,1.68-0.172,3.039-0.516,4.07s-0.859,1.828-1.547,2.391s-1.555,0.844-2.602,0.844c-1.383,0-2.465-0.492-3.254-1.484
	C348.141,523.169,347.668,521.228,347.668,518.536 M349.477,518.536c0,2.352,0.273,3.918,0.824,4.695s1.23,1.168,2.039,1.164
	c0.805,0.004,1.484-0.391,2.035-1.172s0.824-2.344,0.824-4.688c0-2.355-0.273-3.922-0.824-4.695s-1.238-1.164-2.059-1.164
	c-0.805,0-1.449,0.344-1.93,1.027C349.777,514.575,349.477,516.188,349.477,518.536z"/>
<path d="M365.004,525.599v-14.316h2.852l3.391,10.137c0.313,0.945,0.539,1.648,0.68,2.117c0.164-0.52,0.418-1.285,0.766-2.293
	l3.426-9.961h2.551v14.316h-1.828v-11.984l-4.16,11.984h-1.707l-4.141-12.188v12.188H365.004z"/>
<path d="M381.82,525.599v-14.316h9.656v1.691h-7.762v4.43h6.719v1.691h-6.719v6.504H381.82z"/>
<path d="M396.439,525.599l-3.801-14.316h1.945l2.18,9.387c0.23,0.98,0.434,1.957,0.602,2.93c0.367-1.531,0.582-2.414,0.648-2.648
	l2.723-9.668h2.285l2.051,7.246c0.516,1.797,0.887,3.484,1.113,5.07c0.184-0.906,0.422-1.945,0.711-3.117l2.25-9.199h1.902
	l-3.926,14.316h-1.828l-3.016-10.906c-0.254-0.914-0.402-1.473-0.449-1.68c-0.148,0.656-0.289,1.215-0.418,1.68l-3.039,10.906
	H396.439z"/>
<path d="M434.145,520.579l1.895,0.48c-0.398,1.555-1.113,2.742-2.145,3.559s-2.293,1.223-3.781,1.223
	c-1.547,0-2.801-0.313-3.766-0.941c-0.969-0.629-1.703-1.535-2.207-2.73c-0.504-1.188-0.758-2.469-0.758-3.836
	c0-1.492,0.285-2.793,0.855-3.902s1.379-1.953,2.43-2.527c1.051-0.578,2.211-0.867,3.473-0.867c1.434,0,2.637,0.367,3.613,1.094
	c0.977,0.73,1.656,1.758,2.039,3.078l-1.863,0.438c-0.332-1.039-0.813-1.797-1.445-2.273s-1.426-0.711-2.383-0.711
	c-1.102,0-2.02,0.262-2.758,0.789s-1.258,1.234-1.559,2.125c-0.301,0.887-0.449,1.805-0.449,2.75c0,1.215,0.176,2.277,0.531,3.188
	c0.355,0.906,0.906,1.586,1.656,2.035s1.559,0.676,2.434,0.676c1.059,0,1.957-0.309,2.695-0.922
	C433.387,522.692,433.883,521.782,434.145,520.579z"/>
<path d="M444.947,525.599v-1.523c-0.809,1.172-1.906,1.758-3.293,1.758c-0.613,0-1.184-0.117-1.715-0.352s-0.922-0.527-1.18-0.883
	s-0.438-0.789-0.543-1.305c-0.07-0.344-0.105-0.891-0.105-1.641v-6.426h1.758v5.754c0,0.914,0.035,1.535,0.105,1.852
	c0.109,0.465,0.344,0.828,0.703,1.09c0.359,0.266,0.801,0.395,1.328,0.395s1.023-0.133,1.484-0.402s0.789-0.641,0.98-1.105
	s0.289-1.141,0.289-2.023v-5.559h1.758v10.371H444.947z"/>
<path d="M449.234,525.599v-14.316h1.758v14.316H449.234z"/>
<path d="M453.678,525.599v-14.316h1.758v14.316H453.678z"/>
<path d="M465.258,522.259l1.816,0.223c-0.285,1.063-0.816,1.887-1.594,2.473c-0.773,0.586-1.762,0.879-2.969,0.879
	c-1.516,0-2.719-0.469-3.605-1.402c-0.891-0.934-1.332-2.242-1.332-3.93c0-1.746,0.445-3.098,1.344-4.063s2.066-1.445,3.5-1.445
	c1.383,0,2.516,0.473,3.398,1.418c0.875,0.941,1.316,2.27,1.316,3.984c0,0.102-0.004,0.258-0.012,0.469h-7.734
	c0.066,1.137,0.391,2.008,0.969,2.617c0.578,0.602,1.301,0.906,2.168,0.906c0.645,0,1.195-0.168,1.652-0.508
	C464.629,523.54,464.992,523.001,465.258,522.259 M459.488,519.419h5.789c-0.078-0.875-0.301-1.527-0.664-1.965
	c-0.559-0.676-1.285-1.016-2.18-1.016c-0.805,0-1.484,0.27-2.035,0.809C459.848,517.79,459.543,518.513,459.488,519.419z"/>
<path d="M476.01,525.599v-1.309c-0.656,1.027-1.625,1.543-2.898,1.543c-0.828,0-1.59-0.227-2.281-0.684
	c-0.695-0.457-1.23-1.094-1.613-1.91c-0.379-0.816-0.57-1.754-0.57-2.816c0-1.035,0.172-1.973,0.52-2.816
	c0.344-0.844,0.859-1.488,1.551-1.938c0.691-0.453,1.461-0.676,2.316-0.676c0.625,0,1.18,0.133,1.668,0.395
	c0.488,0.266,0.887,0.609,1.191,1.031v-5.137h1.75v14.316H476.01 M470.455,520.423c-0.004,1.328,0.277,2.32,0.836,2.98
	c0.563,0.656,1.223,0.984,1.984,0.984c0.77,0,1.422-0.313,1.957-0.941c0.539-0.629,0.809-1.59,0.809-2.879
	c0-1.418-0.273-2.461-0.82-3.125s-1.223-0.992-2.023-0.992c-0.781,0-1.434,0.316-1.957,0.953
	C470.717,518.044,470.451,519.048,470.455,520.423z"/>
<path d="M495.979,524.005c-0.422,0.492-0.895,0.883-1.418,1.18s-1.051,0.445-1.578,0.445c-0.578,0-1.145-0.172-1.691-0.508
	c-0.547-0.34-0.988-0.859-1.332-1.563c-0.34-0.703-0.512-1.477-0.512-2.316c0-1.035,0.266-2.07,0.797-3.109s1.188-1.82,1.977-2.34
	s1.551-0.781,2.297-0.781c0.563,0,1.105,0.148,1.617,0.445c0.516,0.297,0.961,0.746,1.328,1.352l0.336-1.516h1.746l-1.406,6.555
	c-0.195,0.91-0.293,1.414-0.293,1.516c0,0.172,0.066,0.324,0.199,0.453c0.133,0.125,0.297,0.188,0.484,0.188
	c0.344,0,0.797-0.195,1.355-0.594c0.742-0.52,1.332-1.219,1.766-2.094s0.648-1.781,0.648-2.711c0-1.086-0.277-2.102-0.836-3.047
	c-0.555-0.945-1.387-1.699-2.488-2.266c-1.105-0.566-2.324-0.852-3.66-0.852c-1.523,0-2.914,0.359-4.172,1.07
	c-1.262,0.715-2.238,1.734-2.93,3.066c-0.695,1.332-1.039,2.762-1.039,4.285c0,1.594,0.344,2.969,1.039,4.117
	c0.691,1.152,1.695,2.004,3.008,2.555s2.766,0.828,4.359,0.828c1.707,0,3.133-0.289,4.289-0.859
	c1.148-0.574,2.012-1.273,2.586-2.094h1.766c-0.328,0.684-0.898,1.383-1.707,2.094c-0.809,0.707-1.77,1.27-2.879,1.684
	c-1.117,0.414-2.457,0.621-4.023,0.621c-1.445,0-2.781-0.188-4-0.559c-1.223-0.371-2.262-0.93-3.121-1.676s-1.508-1.602-1.941-2.57
	c-0.547-1.23-0.824-2.563-0.82-3.984c-0.004-1.59,0.324-3.105,0.977-4.543c0.793-1.766,1.922-3.113,3.383-4.051
	s3.234-1.406,5.316-1.406c1.613,0,3.066,0.328,4.352,0.988s2.301,1.645,3.043,2.957c0.629,1.125,0.945,2.348,0.945,3.672
	c0,1.887-0.664,3.563-1.992,5.027c-1.184,1.316-2.48,1.973-3.887,1.973c-0.449,0-0.813-0.07-1.09-0.203
	c-0.277-0.141-0.48-0.336-0.609-0.586C496.08,524.685,496.018,524.403,495.979,524.005 M491.252,521.36
	c0,0.891,0.215,1.586,0.637,2.082c0.422,0.492,0.906,0.742,1.457,0.742c0.363,0,0.746-0.109,1.148-0.328
	c0.406-0.219,0.793-0.543,1.16-0.973s0.668-0.977,0.902-1.637s0.352-1.32,0.352-1.984c0-0.887-0.219-1.574-0.66-2.063
	c-0.438-0.488-0.973-0.734-1.605-0.734c-0.418,0-0.809,0.109-1.176,0.32s-0.727,0.551-1.07,1.02s-0.621,1.039-0.832,1.707
	C491.357,520.185,491.252,520.802,491.252,521.36z"/>
<path d="M511.33,518.536c0-1.691,0.176-3.055,0.523-4.086s0.867-1.828,1.555-2.387s1.551-0.84,2.594-0.84
	c0.766,0,1.441,0.156,2.02,0.465s1.059,0.754,1.434,1.336c0.379,0.582,0.676,1.293,0.891,2.129s0.32,1.965,0.32,3.383
	c0,1.68-0.172,3.039-0.516,4.07s-0.859,1.828-1.547,2.391s-1.555,0.844-2.602,0.844c-1.383,0-2.465-0.492-3.254-1.484
	C511.803,523.169,511.33,521.228,511.33,518.536 M513.139,518.536c0,2.352,0.273,3.918,0.824,4.695s1.23,1.168,2.039,1.164
	c0.805,0.004,1.484-0.391,2.035-1.172s0.824-2.344,0.824-4.688c0-2.355-0.273-3.922-0.824-4.695s-1.238-1.164-2.059-1.164
	c-0.805,0-1.449,0.344-1.93,1.027C513.439,514.575,513.139,516.188,513.139,518.536z"/>
<path d="M522.789,514.72c0-1.023,0.254-1.891,0.77-2.605c0.516-0.719,1.262-1.078,2.238-1.078c0.898,0,1.641,0.324,2.23,0.965
	s0.883,1.582,0.883,2.824c0,1.211-0.297,2.145-0.895,2.801c-0.594,0.652-1.328,0.98-2.203,0.98c-0.863,0-1.586-0.32-2.16-0.969
	C523.074,516.997,522.789,516.021,522.789,514.72 M525.844,512.247c-0.438,0-0.801,0.191-1.09,0.57
	c-0.289,0.375-0.434,1.07-0.434,2.078c0,0.918,0.148,1.563,0.438,1.938c0.297,0.375,0.656,0.563,1.086,0.563
	c0.441,0,0.809-0.188,1.098-0.566s0.434-1.066,0.434-2.07c0-0.926-0.145-1.574-0.438-1.949S526.281,512.247,525.844,512.247
	 M525.852,526.126l7.836-15.09h1.422l-7.801,15.09H525.852 M532.047,522.239c0-1.027,0.254-1.898,0.77-2.613
	c0.516-0.711,1.262-1.066,2.246-1.066c0.898,0,1.641,0.32,2.23,0.961s0.883,1.582,0.887,2.828c-0.004,1.211-0.301,2.141-0.895,2.797
	c-0.598,0.652-1.332,0.98-2.215,0.98c-0.863,0-1.586-0.324-2.16-0.973C532.332,524.505,532.047,523.536,532.047,522.239
	 M535.109,519.771c-0.441,0-0.809,0.188-1.098,0.563c-0.289,0.379-0.434,1.074-0.434,2.082c0,0.91,0.148,1.555,0.438,1.934
	c0.297,0.379,0.656,0.566,1.086,0.566c0.449,0,0.82-0.188,1.109-0.566s0.434-1.066,0.434-2.07c0-0.926-0.145-1.574-0.441-1.949
	C535.914,519.954,535.547,519.771,535.109,519.771z"/>
<path d="M345.385,544.579l1.895,0.48c-0.398,1.555-1.113,2.742-2.145,3.559s-2.293,1.223-3.781,1.223
	c-1.547,0-2.801-0.313-3.766-0.941c-0.969-0.629-1.703-1.535-2.207-2.73c-0.504-1.188-0.758-2.469-0.758-3.836
	c0-1.492,0.285-2.793,0.855-3.902s1.379-1.953,2.43-2.527c1.051-0.578,2.211-0.867,3.473-0.867c1.434,0,2.637,0.367,3.613,1.094
	c0.977,0.73,1.656,1.758,2.039,3.078l-1.863,0.438c-0.332-1.039-0.813-1.797-1.445-2.273s-1.426-0.711-2.383-0.711
	c-1.102,0-2.02,0.262-2.758,0.789s-1.258,1.234-1.559,2.125c-0.301,0.887-0.449,1.805-0.449,2.75c0,1.215,0.176,2.277,0.531,3.188
	c0.355,0.906,0.906,1.586,1.656,2.035s1.559,0.676,2.434,0.676c1.059,0,1.957-0.309,2.695-0.922
	C344.627,546.692,345.123,545.782,345.385,544.579z"/>
<path d="M349.352,549.599v-14.316h1.758v14.316H349.352z"/>
<path d="M360.6,548.317c-0.652,0.555-1.277,0.945-1.879,1.172c-0.602,0.23-1.25,0.344-1.941,0.344c-1.137,0-2.012-0.277-2.625-0.836
	c-0.613-0.555-0.918-1.266-0.918-2.133c0-0.508,0.117-0.973,0.348-1.391c0.23-0.422,0.531-0.758,0.906-1.012
	s0.797-0.445,1.266-0.574c0.344-0.094,0.867-0.18,1.563-0.266c1.418-0.168,2.465-0.371,3.133-0.605
	c0.008-0.242,0.012-0.395,0.012-0.457c0-0.719-0.168-1.223-0.496-1.516c-0.453-0.398-1.117-0.594-2.004-0.594
	c-0.828,0-1.438,0.145-1.832,0.434s-0.684,0.801-0.875,1.535l-1.719-0.234c0.156-0.734,0.414-1.328,0.773-1.781
	s0.875-0.801,1.555-1.043c0.676-0.246,1.461-0.367,2.352-0.367c0.887,0,1.605,0.105,2.156,0.313
	c0.555,0.207,0.961,0.469,1.223,0.785s0.441,0.715,0.547,1.195c0.059,0.301,0.09,0.844,0.09,1.625v2.344
	c0,1.633,0.035,2.664,0.109,3.098s0.223,0.848,0.445,1.246h-1.836C360.768,549.235,360.65,548.81,360.6,548.317 M360.451,544.396
	c-0.637,0.258-1.594,0.48-2.867,0.664c-0.727,0.102-1.234,0.219-1.535,0.352c-0.301,0.129-0.531,0.32-0.691,0.57
	c-0.164,0.25-0.246,0.527-0.246,0.836c0,0.469,0.176,0.859,0.531,1.172s0.875,0.469,1.559,0.469c0.676,0,1.281-0.148,1.805-0.445
	c0.531-0.297,0.918-0.703,1.164-1.219c0.188-0.395,0.281-0.98,0.281-1.758V544.396z"/>
<path d="M364.254,546.505l1.734-0.273c0.102,0.695,0.371,1.227,0.816,1.602c0.445,0.367,1.07,0.555,1.871,0.555
	c0.809,0,1.406-0.164,1.797-0.492s0.586-0.715,0.586-1.156c0-0.398-0.172-0.711-0.516-0.938c-0.242-0.156-0.844-0.355-1.797-0.598
	c-1.289-0.324-2.184-0.605-2.684-0.844c-0.496-0.238-0.875-0.566-1.133-0.988c-0.258-0.418-0.387-0.883-0.387-1.391
	c0-0.461,0.109-0.891,0.32-1.285s0.5-0.719,0.863-0.98c0.273-0.203,0.645-0.371,1.117-0.512s0.98-0.211,1.52-0.211
	c0.813,0,1.527,0.117,2.145,0.352c0.613,0.234,1.066,0.551,1.363,0.953c0.289,0.398,0.492,0.934,0.602,1.605l-1.719,0.234
	c-0.078-0.535-0.301-0.949-0.676-1.25s-0.902-0.449-1.59-0.449c-0.805,0-1.383,0.133-1.727,0.402
	c-0.344,0.266-0.516,0.578-0.516,0.938c0,0.227,0.07,0.43,0.211,0.613c0.145,0.188,0.371,0.344,0.676,0.469
	c0.176,0.066,0.691,0.215,1.551,0.449c1.246,0.332,2.113,0.605,2.605,0.816s0.875,0.52,1.156,0.922s0.418,0.906,0.418,1.504
	c0,0.586-0.168,1.137-0.512,1.656c-0.34,0.516-0.836,0.918-1.48,1.199c-0.641,0.285-1.371,0.426-2.188,0.426
	c-1.344,0-2.371-0.281-3.078-0.84S364.449,547.603,364.254,546.505z"/>
<path d="M374.254,546.505l1.734-0.273c0.102,0.695,0.371,1.227,0.816,1.602c0.445,0.367,1.07,0.555,1.871,0.555
	c0.809,0,1.406-0.164,1.797-0.492s0.586-0.715,0.586-1.156c0-0.398-0.172-0.711-0.516-0.938c-0.242-0.156-0.844-0.355-1.797-0.598
	c-1.289-0.324-2.184-0.605-2.684-0.844c-0.496-0.238-0.875-0.566-1.133-0.988c-0.258-0.418-0.387-0.883-0.387-1.391
	c0-0.461,0.109-0.891,0.32-1.285s0.5-0.719,0.863-0.98c0.273-0.203,0.645-0.371,1.117-0.512s0.98-0.211,1.52-0.211
	c0.813,0,1.527,0.117,2.145,0.352c0.613,0.234,1.066,0.551,1.363,0.953c0.289,0.398,0.492,0.934,0.602,1.605l-1.719,0.234
	c-0.078-0.535-0.301-0.949-0.676-1.25s-0.902-0.449-1.59-0.449c-0.805,0-1.383,0.133-1.727,0.402
	c-0.344,0.266-0.516,0.578-0.516,0.938c0,0.227,0.07,0.43,0.211,0.613c0.145,0.188,0.371,0.344,0.676,0.469
	c0.176,0.066,0.691,0.215,1.551,0.449c1.246,0.332,2.113,0.605,2.605,0.816s0.875,0.52,1.156,0.922s0.418,0.906,0.418,1.504
	c0,0.586-0.168,1.137-0.512,1.656c-0.34,0.516-0.836,0.918-1.48,1.199c-0.641,0.285-1.371,0.426-2.188,0.426
	c-1.344,0-2.371-0.281-3.078-0.84S374.449,547.603,374.254,546.505z"/>
<path d="M384.965,537.302v-2.02h1.758v2.02H384.965 M384.965,549.599v-10.371h1.758v10.371H384.965z"/>
<path d="M396.166,545.802l1.727,0.223c-0.188,1.191-0.672,2.125-1.449,2.797c-0.777,0.676-1.73,1.012-2.863,1.012
	c-1.422,0-2.563-0.465-3.426-1.391c-0.863-0.93-1.293-2.258-1.293-3.992c0-1.117,0.188-2.098,0.555-2.938
	c0.375-0.84,0.938-1.469,1.695-1.891c0.758-0.418,1.586-0.629,2.477-0.629c1.125,0,2.047,0.285,2.766,0.855
	c0.715,0.57,1.172,1.379,1.375,2.426l-1.711,0.262c-0.16-0.695-0.449-1.219-0.863-1.57s-0.91-0.527-1.496-0.527
	c-0.887,0-1.605,0.316-2.16,0.953c-0.555,0.633-0.832,1.637-0.832,3.012c0,1.395,0.27,2.406,0.805,3.039
	c0.531,0.629,1.227,0.945,2.086,0.945c0.691,0,1.27-0.211,1.73-0.633C395.748,547.329,396.041,546.677,396.166,545.802z"/>
<path d="M405.18,549.599v-14.316h4.934c1.109,0,1.961,0.066,2.547,0.207c0.82,0.188,1.52,0.527,2.102,1.023
	c0.754,0.637,1.316,1.453,1.691,2.445s0.563,2.129,0.563,3.406c0,1.086-0.129,2.047-0.379,2.891
	c-0.258,0.836-0.582,1.531-0.977,2.082c-0.398,0.551-0.832,0.984-1.305,1.301s-1.043,0.555-1.711,0.719
	c-0.668,0.16-1.434,0.242-2.297,0.242H405.18 M407.074,547.911h3.055c0.945,0,1.688-0.09,2.223-0.266
	c0.539-0.176,0.965-0.422,1.285-0.742c0.449-0.449,0.801-1.055,1.051-1.813s0.375-1.676,0.375-2.758
	c0-1.496-0.246-2.648-0.738-3.453s-1.086-1.344-1.789-1.617c-0.508-0.195-1.328-0.289-2.453-0.289h-3.008V547.911z"/>
<path d="M426.498,546.259l1.816,0.223c-0.285,1.063-0.816,1.887-1.594,2.473c-0.773,0.586-1.762,0.879-2.969,0.879
	c-1.516,0-2.719-0.469-3.605-1.402c-0.891-0.934-1.332-2.242-1.332-3.93c0-1.746,0.445-3.098,1.344-4.063s2.066-1.445,3.5-1.445
	c1.383,0,2.516,0.473,3.398,1.418c0.875,0.941,1.316,2.27,1.316,3.984c0,0.102-0.004,0.258-0.012,0.469h-7.734
	c0.066,1.137,0.391,2.008,0.969,2.617c0.578,0.602,1.301,0.906,2.168,0.906c0.645,0,1.195-0.168,1.652-0.508
	C425.869,547.54,426.232,547.001,426.498,546.259 M420.729,543.419h5.789c-0.078-0.875-0.301-1.527-0.664-1.965
	c-0.559-0.676-1.285-1.016-2.18-1.016c-0.805,0-1.484,0.27-2.035,0.809C421.088,541.79,420.783,542.513,420.729,543.419z"/>
<path d="M430.484,549.599v-14.316h1.758v14.316H430.484z"/>
<path d="M438.803,548.028l0.254,1.551c-0.496,0.105-0.938,0.156-1.328,0.156c-0.637,0-1.133-0.102-1.484-0.301
	c-0.352-0.203-0.598-0.469-0.742-0.797s-0.215-1.023-0.215-2.078v-5.965h-1.289v-1.367h1.289v-2.566l1.75-1.055v3.621h1.766v1.367
	h-1.766v6.066c0,0.5,0.027,0.82,0.09,0.965s0.164,0.258,0.305,0.34c0.141,0.086,0.34,0.129,0.598,0.129
	C438.225,548.095,438.482,548.071,438.803,548.028z"/>
<path d="M447.289,548.317c-0.652,0.555-1.277,0.945-1.879,1.172c-0.602,0.23-1.25,0.344-1.941,0.344
	c-1.137,0-2.012-0.277-2.625-0.836c-0.613-0.555-0.918-1.266-0.918-2.133c0-0.508,0.117-0.973,0.348-1.391
	c0.23-0.422,0.531-0.758,0.906-1.012s0.797-0.445,1.266-0.574c0.344-0.094,0.867-0.18,1.563-0.266
	c1.418-0.168,2.465-0.371,3.133-0.605c0.008-0.242,0.012-0.395,0.012-0.457c0-0.719-0.168-1.223-0.496-1.516
	c-0.453-0.398-1.117-0.594-2.004-0.594c-0.828,0-1.438,0.145-1.832,0.434s-0.684,0.801-0.875,1.535l-1.719-0.234
	c0.156-0.734,0.414-1.328,0.773-1.781s0.875-0.801,1.555-1.043c0.676-0.246,1.461-0.367,2.352-0.367
	c0.887,0,1.605,0.105,2.156,0.313c0.555,0.207,0.961,0.469,1.223,0.785s0.441,0.715,0.547,1.195c0.059,0.301,0.09,0.844,0.09,1.625
	v2.344c0,1.633,0.035,2.664,0.109,3.098s0.223,0.848,0.445,1.246h-1.836C447.457,549.235,447.34,548.81,447.289,548.317
	 M447.141,544.396c-0.637,0.258-1.594,0.48-2.867,0.664c-0.727,0.102-1.234,0.219-1.535,0.352c-0.301,0.129-0.531,0.32-0.691,0.57
	c-0.164,0.25-0.246,0.527-0.246,0.836c0,0.469,0.176,0.859,0.531,1.172s0.875,0.469,1.559,0.469c0.676,0,1.281-0.148,1.805-0.445
	c0.531-0.297,0.918-0.703,1.164-1.219c0.188-0.395,0.281-0.98,0.281-1.758V544.396z"/>
<path d="M463.93,549.599v-1.309c-0.656,1.027-1.625,1.543-2.898,1.543c-0.828,0-1.59-0.227-2.281-0.684
	c-0.695-0.457-1.23-1.094-1.613-1.91c-0.379-0.816-0.57-1.754-0.57-2.816c0-1.035,0.172-1.973,0.52-2.816
	c0.344-0.844,0.859-1.488,1.551-1.938c0.691-0.453,1.461-0.676,2.316-0.676c0.625,0,1.18,0.133,1.668,0.395
	c0.488,0.266,0.887,0.609,1.191,1.031v-5.137h1.75v14.316H463.93 M458.375,544.423c-0.004,1.328,0.277,2.32,0.836,2.98
	c0.563,0.656,1.223,0.984,1.984,0.984c0.77,0,1.422-0.313,1.957-0.941c0.539-0.629,0.809-1.59,0.809-2.879
	c0-1.418-0.273-2.461-0.82-3.125s-1.223-0.992-2.023-0.992c-0.781,0-1.434,0.316-1.957,0.953
	C458.637,542.044,458.371,543.048,458.375,544.423z"/>
<path d="M468.334,537.302v-2.02h1.758v2.02H468.334 M468.334,549.599v-10.371h1.758v10.371H468.334z"/>
<path d="M472.066,546.505l1.734-0.273c0.102,0.695,0.371,1.227,0.816,1.602c0.445,0.367,1.07,0.555,1.871,0.555
	c0.809,0,1.406-0.164,1.797-0.492s0.586-0.715,0.586-1.156c0-0.398-0.172-0.711-0.516-0.938c-0.242-0.156-0.844-0.355-1.797-0.598
	c-1.289-0.324-2.184-0.605-2.684-0.844c-0.496-0.238-0.875-0.566-1.133-0.988c-0.258-0.418-0.387-0.883-0.387-1.391
	c0-0.461,0.109-0.891,0.32-1.285s0.5-0.719,0.863-0.98c0.273-0.203,0.645-0.371,1.117-0.512s0.98-0.211,1.52-0.211
	c0.813,0,1.527,0.117,2.145,0.352c0.613,0.234,1.066,0.551,1.363,0.953c0.289,0.398,0.492,0.934,0.602,1.605l-1.719,0.234
	c-0.078-0.535-0.301-0.949-0.676-1.25s-0.902-0.449-1.59-0.449c-0.805,0-1.383,0.133-1.727,0.402
	c-0.344,0.266-0.516,0.578-0.516,0.938c0,0.227,0.07,0.43,0.211,0.613c0.145,0.188,0.371,0.344,0.676,0.469
	c0.176,0.066,0.691,0.215,1.551,0.449c1.246,0.332,2.113,0.605,2.605,0.816s0.875,0.52,1.156,0.922s0.418,0.906,0.418,1.504
	c0,0.586-0.168,1.137-0.512,1.656c-0.34,0.516-0.836,0.918-1.48,1.199c-0.641,0.285-1.371,0.426-2.188,0.426
	c-1.344,0-2.371-0.281-3.078-0.84S472.262,547.603,472.066,546.505z"/>
<path d="M486.605,548.028l0.254,1.551c-0.496,0.105-0.938,0.156-1.328,0.156c-0.637,0-1.133-0.102-1.484-0.301
	c-0.352-0.203-0.598-0.469-0.742-0.797s-0.215-1.023-0.215-2.078v-5.965h-1.289v-1.367h1.289v-2.566l1.75-1.055v3.621h1.766v1.367
	h-1.766v6.066c0,0.5,0.027,0.82,0.09,0.965s0.164,0.258,0.305,0.34c0.141,0.086,0.34,0.129,0.598,0.129
	C486.027,548.095,486.285,548.071,486.605,548.028z"/>
<path d="M495.092,548.317c-0.652,0.555-1.277,0.945-1.879,1.172c-0.602,0.23-1.25,0.344-1.941,0.344
	c-1.137,0-2.012-0.277-2.625-0.836c-0.613-0.555-0.918-1.266-0.918-2.133c0-0.508,0.117-0.973,0.348-1.391
	c0.23-0.422,0.531-0.758,0.906-1.012s0.797-0.445,1.266-0.574c0.344-0.094,0.867-0.18,1.563-0.266
	c1.418-0.168,2.465-0.371,3.133-0.605c0.008-0.242,0.012-0.395,0.012-0.457c0-0.719-0.168-1.223-0.496-1.516
	c-0.453-0.398-1.117-0.594-2.004-0.594c-0.828,0-1.438,0.145-1.832,0.434s-0.684,0.801-0.875,1.535l-1.719-0.234
	c0.156-0.734,0.414-1.328,0.773-1.781s0.875-0.801,1.555-1.043c0.676-0.246,1.461-0.367,2.352-0.367
	c0.887,0,1.605,0.105,2.156,0.313c0.555,0.207,0.961,0.469,1.223,0.785s0.441,0.715,0.547,1.195c0.059,0.301,0.09,0.844,0.09,1.625
	v2.344c0,1.633,0.035,2.664,0.109,3.098s0.223,0.848,0.445,1.246h-1.836C495.26,549.235,495.143,548.81,495.092,548.317
	 M494.943,544.396c-0.637,0.258-1.594,0.48-2.867,0.664c-0.727,0.102-1.234,0.219-1.535,0.352c-0.301,0.129-0.531,0.32-0.691,0.57
	c-0.164,0.25-0.246,0.527-0.246,0.836c0,0.469,0.176,0.859,0.531,1.172s0.875,0.469,1.559,0.469c0.676,0,1.281-0.148,1.805-0.445
	c0.531-0.297,0.918-0.703,1.164-1.219c0.188-0.395,0.281-0.98,0.281-1.758V544.396z"/>
<path d="M499.449,549.599v-10.371h1.578v1.473c0.762-1.137,1.863-1.707,3.305-1.707c0.625,0,1.199,0.113,1.723,0.336
	c0.523,0.227,0.914,0.52,1.176,0.887c0.262,0.363,0.441,0.797,0.547,1.297c0.066,0.324,0.098,0.895,0.098,1.711v6.375h-1.758v-6.309
	c0-0.715-0.066-1.25-0.207-1.605c-0.133-0.355-0.379-0.641-0.727-0.852s-0.758-0.316-1.227-0.316c-0.746,0-1.395,0.238-1.938,0.715
	c-0.543,0.473-0.813,1.375-0.813,2.703v5.664H499.449z"/>
<path d="M517.338,545.802l1.727,0.223c-0.188,1.191-0.672,2.125-1.449,2.797c-0.777,0.676-1.73,1.012-2.863,1.012
	c-1.422,0-2.563-0.465-3.426-1.391c-0.863-0.93-1.293-2.258-1.293-3.992c0-1.117,0.188-2.098,0.555-2.938
	c0.375-0.84,0.938-1.469,1.695-1.891c0.758-0.418,1.586-0.629,2.477-0.629c1.125,0,2.047,0.285,2.766,0.855
	c0.715,0.57,1.172,1.379,1.375,2.426l-1.711,0.262c-0.16-0.695-0.449-1.219-0.863-1.57s-0.91-0.527-1.496-0.527
	c-0.887,0-1.605,0.316-2.16,0.953c-0.555,0.633-0.832,1.637-0.832,3.012c0,1.395,0.27,2.406,0.805,3.039
	c0.531,0.629,1.227,0.945,2.086,0.945c0.691,0,1.27-0.211,1.73-0.633C516.92,547.329,517.213,546.677,517.338,545.802z"/>
<path d="M527.67,546.259l1.816,0.223c-0.285,1.063-0.816,1.887-1.594,2.473c-0.773,0.586-1.762,0.879-2.969,0.879
	c-1.516,0-2.719-0.469-3.605-1.402c-0.891-0.934-1.332-2.242-1.332-3.93c0-1.746,0.445-3.098,1.344-4.063s2.066-1.445,3.5-1.445
	c1.383,0,2.516,0.473,3.398,1.418c0.875,0.941,1.316,2.27,1.316,3.984c0,0.102-0.004,0.258-0.012,0.469h-7.734
	c0.066,1.137,0.391,2.008,0.969,2.617c0.578,0.602,1.301,0.906,2.168,0.906c0.645,0,1.195-0.168,1.652-0.508
	C527.041,547.54,527.404,547.001,527.67,546.259 M521.9,543.419h5.789c-0.078-0.875-0.301-1.527-0.664-1.965
	c-0.559-0.676-1.285-1.016-2.18-1.016c-0.805,0-1.484,0.27-2.035,0.809C522.26,541.79,521.955,542.513,521.9,543.419z"/>
</svg>
